<svg width="304" height="52" viewBox="0 0 304 52" fill="none" xmlns="http://www.w3.org/2000/svg">
<g filter="url(#filter0_d_11773_560)">
<path d="M266.989 18.1953C267.207 18.1953 267.471 18.2434 267.72 18.3877L271.29 20.3242H271.289C271.646 20.5126 271.886 20.8226 272.002 21.1631L272.046 21.3145L272.074 21.4775C272.119 21.8514 272.017 22.186 271.882 22.4336C271.869 22.4568 271.855 22.4798 271.841 22.502L265.044 32.9004L271.84 43.2676L271.848 43.2793L271.926 43.418C272.09 43.7475 272.125 44.1141 272.046 44.4561C271.944 44.8975 271.651 45.2474 271.296 45.4424L267.72 47.417L267.719 47.416C267.527 47.523 267.321 47.5812 267.115 47.5996C267.074 47.6048 267.032 47.6084 266.989 47.6084H266.979C266.938 47.6084 266.897 47.6054 266.857 47.6006C266.411 47.5617 265.979 47.3284 265.718 46.9219L265.717 46.9229L257.049 33.7432C257.045 33.7367 257.04 33.7302 257.036 33.7236C256.721 33.2199 256.721 32.5838 257.036 32.0801C257.04 32.0736 257.045 32.0669 257.049 32.0605L265.717 18.8818L265.729 18.8613C266.001 18.4685 266.455 18.1954 266.989 18.1953Z" fill="#A6A4A2" stroke="white" stroke-width="2" stroke-linejoin="round"/>
<path d="M290.561 18.1953C290.956 18.1953 291.336 18.3469 291.622 18.626L291.738 18.7529L291.834 18.8838C292.041 19.1985 292.14 19.5982 292.056 20.0156L292.058 20.0166L289.385 33.584C291.852 33.9098 294.661 35.4512 296.125 38.9297H296.124C296.473 39.7498 296.759 40.1889 297.003 40.4229C297.199 40.6108 297.384 40.6845 297.681 40.6846C298.101 40.6846 298.735 40.5371 299.697 40.1094V40.1113C299.928 40.0051 300.143 39.9785 300.316 39.9785L300.462 39.9844C300.598 39.9964 300.751 40.0307 300.912 40.1016L300.914 40.0996C300.928 40.1053 300.941 40.1131 300.954 40.1191C300.961 40.1226 300.969 40.1252 300.977 40.1289L300.976 40.1299C301.388 40.325 301.649 40.6845 301.763 41.0459L302.929 44.7246L302.933 44.7363C303.154 45.4654 302.81 46.2643 302.099 46.5879C302.09 46.5919 302.08 46.5958 302.071 46.5996C300.457 47.2765 298.888 47.6425 297.435 47.6426C297.361 47.6426 297.288 47.6319 297.218 47.6162C295.564 47.5779 294.069 47.0764 292.777 46.1064C291.444 45.1054 290.376 43.6446 289.548 41.8027L289.546 41.7988C289.066 40.7188 288.562 40.5196 288.329 40.5195C288.185 40.5195 288.067 40.5676 287.986 40.623C287.981 40.6266 287.976 40.6304 287.972 40.6338L286.812 46.3721C286.677 47.1107 286.026 47.6201 285.312 47.6201H281.04C280.645 47.6201 280.265 47.4685 279.979 47.1895L279.862 47.0625C279.556 46.6884 279.479 46.2377 279.534 45.8506L279.543 45.7969L284.791 19.4268C284.932 18.6967 285.58 18.1953 286.288 18.1953H290.561Z" fill="#A6A4A2" stroke="white" stroke-width="2" stroke-linejoin="round"/>
<path d="M14.2119 5.15039C14.7641 5.15053 15.2119 5.59819 15.2119 6.15039V9.03906C15.2183 9.08475 15.2226 9.13126 15.2227 9.17871V15.2363C15.2226 15.2834 15.2182 15.3296 15.2119 15.375V28.3037C15.2117 28.8557 14.7639 29.3036 14.2119 29.3037H7.55078C6.99864 29.3037 6.55102 28.8558 6.55078 28.3037V16.2363H2C1.44786 16.2363 1.00024 15.7884 1 15.2363V9.17871C1.00009 8.62651 1.44777 8.17871 2 8.17871H6.55078V6.15039C6.55078 5.59811 6.9985 5.15039 7.55078 5.15039H14.2119Z" fill="#32322E" stroke="white" stroke-width="2" stroke-linejoin="round"/>
<path d="M29.3828 5.15039C29.9351 5.15039 30.3828 5.59811 30.3828 6.15039V8.17871H34.8662C35.4184 8.17871 35.8661 8.62651 35.8662 9.17871V15.2363C35.866 15.7884 35.4183 16.2363 34.8662 16.2363H30.3828V25.5557C30.3827 32.5266 28.2946 37.7714 24.9922 41.5898C21.7017 45.3944 17.2693 47.7095 12.6895 48.9531C12.2346 49.0765 11.7553 48.8661 11.5391 48.4473L8.70215 42.9512C8.56567 42.6868 8.55457 42.3754 8.6709 42.1016C8.78734 41.8277 9.01951 41.6194 9.30469 41.5342C13.5201 40.2747 16.576 38.5469 18.5898 36.0645C20.5933 33.5946 21.6659 30.2525 21.666 25.5557V16.2363H17.1826C16.6305 16.2363 16.1829 15.7884 16.1826 15.2363V9.17871C16.1827 8.62651 16.6304 8.17871 17.1826 8.17871H21.666V6.15039C21.666 5.59811 22.1137 5.15039 22.666 5.15039H29.3828Z" fill="#F3B5B0" stroke="white" stroke-width="2" stroke-linejoin="round"/>
<path d="M76.6162 2.12207L76.7178 2.12695C77.2222 2.17801 77.6162 2.60419 77.6162 3.12207V10.3008C77.6162 10.8529 77.1683 11.3006 76.6162 11.3008H72.792C72.2397 11.3008 71.792 10.853 71.792 10.3008V3.12207C71.792 2.56979 72.2397 2.12207 72.792 2.12207H76.6162Z" fill="#32322E" stroke="white" stroke-width="2" stroke-linejoin="round"/>
<path d="M58.7305 8.06641L58.832 8.07129C59.3345 8.12215 59.7278 8.54569 59.7305 9.06152C59.7418 11.2284 59.6843 13.04 59.5137 15.2021C59.4726 15.7223 59.0383 16.123 58.5166 16.123H44.1748C43.6225 16.123 43.1748 15.6753 43.1748 15.123V9.06641C43.1748 8.51412 43.6225 8.06641 44.1748 8.06641H58.7305Z" fill="#32322E" stroke="white" stroke-width="2" stroke-linejoin="round"/>
<path d="M70.9756 2.12207C71.5279 2.12207 71.9756 2.56979 71.9756 3.12207V10.3008C71.9756 10.853 71.5279 11.3008 70.9756 11.3008H69.1904C68.9705 22.1091 67.1124 30.1807 63.6533 36.1914C60.0719 42.4144 54.8275 46.3365 48.1445 48.8145C47.6672 48.9912 47.1334 48.7807 46.9043 48.3262L44.1348 42.8301C44.0102 42.5828 43.9933 42.295 44.0889 42.0352C44.1844 41.7753 44.3836 41.5666 44.6387 41.459C49.6899 39.327 53.2287 36.4212 55.6738 32.6318C58.1292 28.8265 59.5293 24.0569 60.1699 18.124L60.1846 18.0303C60.1946 17.9813 60.2078 17.9337 60.2246 17.8877C60.574 14.3198 60.7013 12.0792 60.6797 9.07422C60.6778 8.80781 60.7821 8.55139 60.9697 8.3623C61.1575 8.17321 61.4132 8.06738 61.6797 8.06738H66.1738V3.33008C66.1596 3.26296 66.1523 3.19342 66.1523 3.12207C66.1523 2.56979 66.6001 2.12207 67.1523 2.12207H70.9756Z" fill="#B0CCD0" stroke="white" stroke-width="2" stroke-linejoin="round"/>
<path d="M96.8926 18.0195C96.89 18.0454 96.8892 18.0717 96.8887 18.0977L96.8818 18.1367C96.2467 24.0751 94.8501 28.8567 92.3926 32.6807C89.9451 36.489 86.3986 39.4197 81.335 41.585C81.0797 41.6942 80.881 41.9047 80.7871 42.166C80.6932 42.4274 80.7125 42.7161 80.8398 42.9629L83.6768 48.459C83.9081 48.9072 84.4377 49.1136 84.9111 48.9395C90.707 46.808 95.4213 43.5663 98.8945 38.6602L105.884 48.5762C106.182 48.9997 106.755 49.1252 107.203 48.8652L112.81 45.6123C113.052 45.4716 113.225 45.2358 113.285 44.9619C113.345 44.688 113.287 44.4011 113.126 44.1719L103.184 30.0664C105.032 24.4653 105.975 17.6497 105.975 9.17969C105.975 8.66175 105.581 8.23555 105.076 8.18457L104.975 8.17969H98.3467C98.081 8.17981 97.8262 8.28547 97.6387 8.47363C97.4511 8.66201 97.3456 8.91774 97.3467 9.18359C97.3577 11.8824 97.2597 13.9916 96.9824 17.0107C96.9647 17.1884 96.9494 17.3646 96.9355 17.5312C96.9214 17.7007 96.9084 17.861 96.8926 18.0195ZM96.8926 18.0195H96.9014M96.8926 18.0195H96.9014M96.9014 18.0195C96.8987 18.0317 96.8966 18.0445 96.8945 18.0576C96.8934 18.0651 96.8924 18.0723 96.8916 18.0791C96.896 18.0527 96.8998 18.026 96.9062 18C96.9047 18.0063 96.9028 18.0129 96.9014 18.0195Z" fill="#CBDAAB" stroke="white" stroke-width="2" stroke-linejoin="round"/>
<path d="M95.4092 8.17969C95.9594 8.17969 96.4063 8.62458 96.4092 9.1748C96.4205 11.3345 96.352 13.1462 96.1816 15.3154C96.1405 15.8355 95.7063 16.2363 95.1846 16.2363H83.7695C83.2172 16.2363 82.7695 15.7886 82.7695 15.2363V9.17969C82.7695 8.6274 83.2172 8.17969 83.7695 8.17969H95.4092Z" fill="#32322E" stroke="white" stroke-width="2" stroke-linejoin="round"/>
<path d="M128.96 5.15039L129.062 5.15527C129.567 5.20661 129.96 5.63272 129.96 6.15039C129.96 6.72375 129.936 7.29369 129.914 7.83984C129.914 7.8476 129.914 7.85553 129.913 7.86328C129.732 10.6854 129.504 12.7584 129.084 15.3936C129.081 15.4112 129.078 15.4288 129.074 15.4463C127.937 20.734 125.834 25.494 122.442 29.458C122.116 29.8393 121.557 29.9202 121.137 29.6465L115.709 26.1133C115.469 25.9571 115.308 25.7051 115.266 25.4219C115.224 25.1386 115.305 24.8501 115.489 24.6309C119.675 19.6512 121.299 13.5712 121.299 6.15039C121.299 5.59817 121.747 5.1505 122.299 5.15039H128.96Z" fill="#32322E" stroke="white" stroke-width="2" stroke-linejoin="round"/>
<path d="M142.966 8.17871C143.518 8.17888 143.966 8.62653 143.966 9.17871V25.5547C143.966 32.5239 141.893 37.7689 138.604 41.5879C135.328 45.3934 130.909 47.7093 126.328 48.9531C125.873 49.0764 125.394 48.866 125.178 48.4473L122.341 42.9512C122.205 42.6876 122.192 42.3768 122.308 42.1035C122.423 41.8303 122.654 41.6228 122.938 41.5361C127.157 40.2479 130.215 38.5197 132.229 36.043C134.233 33.5801 135.305 30.2515 135.305 25.5547V16.2354H131.09C130.798 16.2352 130.521 16.1081 130.331 15.8867C130.141 15.6652 130.057 15.3714 130.102 15.083C130.423 13.0012 130.622 11.2446 130.777 9.10645L130.789 9.00977C130.87 8.53453 131.283 8.17871 131.774 8.17871H142.966Z" fill="#EDCBB1" stroke="white" stroke-width="2" stroke-linejoin="round"/>
<mask id="path-12-outside-1_11773_560" maskUnits="userSpaceOnUse" x="152.661" y="1.12207" width="47" height="49" fill="black">
<rect fill="white" x="152.661" y="1.12207" width="47" height="49"/>
<path d="M173.782 3.12207C173.468 7.27216 172.729 9.9643 171.562 12.6562H174.455V30.7148C175.688 28.6399 176.238 26.6771 176.238 23.5928H181.969V25.5557H183.27V23.5928H190.009V25.5557H196.973V31.6123H190.009V35.875H196.973V41.9316H190.009V47.9883H183.292V41.9316H176.328V35.875H183.292V31.6123H181.004C180.69 32.5657 180.264 33.4636 179.647 34.417L174.467 32.6221V38.7354C174.467 45.6894 172.369 47.9883 165.585 47.9883V42.4922C167.872 42.4922 169.039 41.6513 169.039 38.7354V36.9961H162.075V36.4355C161.817 40.3051 161.448 44.1748 161.021 47.9883L155.661 46.6992C156.895 36.8286 157.388 30.3225 157.388 15.124C156.827 15.4044 156.278 15.6845 155.661 15.9648V8.16992C157.758 7.27259 158.431 5.42148 158.431 3.12207H173.782ZM162.726 18.7129C162.692 21.9433 162.636 25.0394 162.546 27.6865L162.355 31.5566H169.017V18.7129H162.726ZM196.95 3.12207V12.6562C196.95 19.6666 193.619 22.4707 186.835 22.4707V16.4141C189.123 16.4141 190.289 15.5726 190.289 12.6562V9.17871H186.655C186.162 13.9457 184.862 18.4328 181.599 22.4707L175.498 20.0596C178.458 16.2459 179.569 12.8241 179.995 9.17871H176.294V3.12207H196.95ZM163.646 9.17871C163.029 10.4125 162.165 11.5907 160.999 12.6562H164.632C165.316 11.4224 165.809 10.2443 166.235 9.17871H163.646Z"/>
</mask>
<path d="M173.782 3.12207C173.468 7.27216 172.729 9.9643 171.562 12.6562H174.455V30.7148C175.688 28.6399 176.238 26.6771 176.238 23.5928H181.969V25.5557H183.27V23.5928H190.009V25.5557H196.973V31.6123H190.009V35.875H196.973V41.9316H190.009V47.9883H183.292V41.9316H176.328V35.875H183.292V31.6123H181.004C180.69 32.5657 180.264 33.4636 179.647 34.417L174.467 32.6221V38.7354C174.467 45.6894 172.369 47.9883 165.585 47.9883V42.4922C167.872 42.4922 169.039 41.6513 169.039 38.7354V36.9961H162.075V36.4355C161.817 40.3051 161.448 44.1748 161.021 47.9883L155.661 46.6992C156.895 36.8286 157.388 30.3225 157.388 15.124C156.827 15.4044 156.278 15.6845 155.661 15.9648V8.16992C157.758 7.27259 158.431 5.42148 158.431 3.12207H173.782ZM162.726 18.7129C162.692 21.9433 162.636 25.0394 162.546 27.6865L162.355 31.5566H169.017V18.7129H162.726ZM196.95 3.12207V12.6562C196.95 19.6666 193.619 22.4707 186.835 22.4707V16.4141C189.123 16.4141 190.289 15.5726 190.289 12.6562V9.17871H186.655C186.162 13.9457 184.862 18.4328 181.599 22.4707L175.498 20.0596C178.458 16.2459 179.569 12.8241 179.995 9.17871H176.294V3.12207H196.95ZM163.646 9.17871C163.029 10.4125 162.165 11.5907 160.999 12.6562H164.632C165.316 11.4224 165.809 10.2443 166.235 9.17871H163.646Z" fill="#32322E"/>
<path d="M173.782 3.12207L175.777 3.27295C175.819 2.71789 175.627 2.17043 175.249 1.76225C174.87 1.35406 174.339 1.12207 173.782 1.12207V3.12207ZM171.562 12.6562L169.727 11.8612C169.46 12.4794 169.521 13.1908 169.891 13.754C170.26 14.3171 170.889 14.6562 171.562 14.6562V12.6562ZM174.455 12.6562H176.455C176.455 11.5517 175.56 10.6562 174.455 10.6562V12.6562ZM174.455 30.7148H172.455C172.455 31.6153 173.057 32.4048 173.925 32.6434C174.793 32.882 175.714 32.5108 176.174 31.7368L174.455 30.7148ZM176.238 23.5928V21.5928C175.134 21.5928 174.238 22.4882 174.238 23.5927L176.238 23.5928ZM181.969 23.5928H183.969C183.969 22.4882 183.073 21.5928 181.969 21.5928V23.5928ZM181.969 25.5557H179.969C179.969 26.6602 180.864 27.5557 181.969 27.5557V25.5557ZM183.27 25.5557V27.5557C184.374 27.5557 185.27 26.6602 185.27 25.5557H183.27ZM183.27 23.5928V21.5928C182.165 21.5928 181.27 22.4882 181.27 23.5928H183.27ZM190.009 23.5928H192.009C192.009 22.4882 191.113 21.5928 190.009 21.5928V23.5928ZM190.009 25.5557H188.009C188.009 26.6602 188.904 27.5557 190.009 27.5557V25.5557ZM196.973 25.5557H198.973C198.973 24.4511 198.077 23.5557 196.973 23.5557V25.5557ZM196.973 31.6123V33.6123C198.077 33.6123 198.973 32.7169 198.973 31.6123H196.973ZM190.009 31.6123V29.6123C188.904 29.6123 188.009 30.5077 188.009 31.6123H190.009ZM190.009 35.875H188.009C188.009 36.9796 188.904 37.875 190.009 37.875V35.875ZM196.973 35.875H198.973C198.973 34.7704 198.077 33.875 196.973 33.875V35.875ZM196.973 41.9316V43.9316C198.077 43.9316 198.973 43.0362 198.973 41.9316H196.973ZM190.009 41.9316V39.9316C188.904 39.9316 188.009 40.8271 188.009 41.9316H190.009ZM190.009 47.9883V49.9883C191.113 49.9883 192.009 49.0928 192.009 47.9883H190.009ZM183.292 47.9883H181.292C181.292 49.0928 182.187 49.9883 183.292 49.9883V47.9883ZM183.292 41.9316H185.292C185.292 40.8271 184.397 39.9316 183.292 39.9316V41.9316ZM176.328 41.9316H174.328C174.328 43.0362 175.224 43.9316 176.328 43.9316V41.9316ZM176.328 35.875V33.875C175.224 33.875 174.328 34.7704 174.328 35.875H176.328ZM183.292 35.875V37.875C184.397 37.875 185.292 36.9796 185.292 35.875H183.292ZM183.292 31.6123H185.292C185.292 30.5077 184.397 29.6123 183.292 29.6123V31.6123ZM181.004 31.6123V29.6123C180.14 29.6123 179.374 30.1665 179.104 30.9867L181.004 31.6123ZM179.647 34.417L178.993 36.3068C179.863 36.6083 180.827 36.2766 181.327 35.5033L179.647 34.417ZM174.467 32.6221L175.122 30.7323C174.51 30.5205 173.834 30.6175 173.307 30.9927C172.78 31.368 172.467 31.975 172.467 32.6221H174.467ZM174.467 38.7354L176.467 38.7354V38.7354H174.467ZM165.585 47.9883H163.585C163.585 49.0928 164.48 49.9883 165.585 49.9883V47.9883ZM165.585 42.4922V40.4922C164.48 40.4922 163.585 41.3876 163.585 42.4922H165.585ZM169.039 38.7354L171.039 38.7354V38.7354H169.039ZM169.039 36.9961H171.039C171.039 35.8915 170.144 34.9961 169.039 34.9961V36.9961ZM162.075 36.9961H160.075C160.075 38.1007 160.971 38.9961 162.075 38.9961V36.9961ZM162.075 36.4355H164.075C164.075 35.3569 163.22 34.4725 162.142 34.4367C161.064 34.4008 160.151 35.2263 160.08 36.3025L162.075 36.4355ZM161.021 47.9883L160.554 49.9328C161.112 50.067 161.7 49.9551 162.17 49.6256C162.64 49.296 162.945 48.7806 163.009 48.2104L161.021 47.9883ZM155.661 46.6992L153.677 46.4512C153.55 47.4617 154.203 48.4057 155.194 48.6438L155.661 46.6992ZM157.388 15.124H159.388C159.388 14.4308 159.029 13.7871 158.439 13.4227C157.849 13.0583 157.113 13.0252 156.493 13.3353L157.388 15.124ZM155.661 15.9648H153.661C153.661 16.6449 154.007 17.2783 154.578 17.6465C155.15 18.0146 155.87 18.067 156.489 17.7855L155.661 15.9648ZM155.661 8.16992L154.874 6.3312C154.138 6.64611 153.661 7.36947 153.661 8.16992H155.661ZM158.431 3.12207V1.12207C157.326 1.12207 156.431 2.0175 156.431 3.12207L158.431 3.12207ZM162.726 18.7129V16.7129C161.629 16.7129 160.737 17.5957 160.726 18.6921L162.726 18.7129ZM162.546 27.6865L164.543 27.7848C164.544 27.7746 164.544 27.7645 164.545 27.7543L162.546 27.6865ZM162.355 31.5566L160.358 31.4583C160.331 32.0052 160.529 32.5391 160.907 32.9357C161.284 33.3322 161.808 33.5566 162.355 33.5566V31.5566ZM169.017 31.5566V33.5566C170.121 33.5566 171.017 32.6612 171.017 31.5566H169.017ZM169.017 18.7129H171.017C171.017 17.6083 170.121 16.7129 169.017 16.7129V18.7129ZM196.95 3.12207H198.95C198.95 2.0175 198.055 1.12207 196.95 1.12207V3.12207ZM196.95 12.6562L198.95 12.6563V12.6562H196.95ZM186.835 22.4707H184.835C184.835 23.5753 185.73 24.4707 186.835 24.4707V22.4707ZM186.835 16.4141V14.4141C185.73 14.4141 184.835 15.3095 184.835 16.4141H186.835ZM190.289 12.6562L192.289 12.6563V12.6562H190.289ZM190.289 9.17871H192.289C192.289 8.07414 191.394 7.17871 190.289 7.17871V9.17871ZM186.655 9.17871V7.17871C185.63 7.17871 184.771 7.9534 184.666 8.97281L186.655 9.17871ZM181.599 22.4707L180.864 24.3307C181.677 24.6521 182.605 24.4079 183.154 23.7278L181.599 22.4707ZM175.498 20.0596L173.918 18.8332C173.532 19.3304 173.403 19.9804 173.569 20.5875C173.735 21.1947 174.177 21.6882 174.763 21.9196L175.498 20.0596ZM179.995 9.17871L181.982 9.41091C182.048 8.8439 181.869 8.27559 181.489 7.84913C181.11 7.42267 180.566 7.17871 179.995 7.17871V9.17871ZM176.294 9.17871H174.294C174.294 10.2833 175.189 11.1787 176.294 11.1787V9.17871ZM176.294 3.12207V1.12207C175.189 1.12207 174.294 2.0175 174.294 3.12207L176.294 3.12207ZM163.646 9.17871V7.17871C162.888 7.17871 162.195 7.6068 161.857 8.28448L163.646 9.17871ZM160.999 12.6562L159.65 11.1798C159.041 11.7365 158.836 12.6104 159.134 13.3798C159.433 14.1493 160.174 14.6562 160.999 14.6562V12.6562ZM164.632 12.6562V14.6562C165.359 14.6562 166.029 14.2618 166.381 13.626L164.632 12.6562ZM166.235 9.17871L168.092 9.92132C168.339 9.30515 168.264 8.60688 167.891 8.05738C167.519 7.50788 166.899 7.17871 166.235 7.17871V9.17871ZM173.782 3.12207L171.788 2.97119C171.49 6.91201 170.8 9.38509 169.727 11.8612L171.562 12.6562L173.398 13.4513C174.657 10.5435 175.447 7.63231 175.777 3.27295L173.782 3.12207ZM171.562 12.6562V14.6562H174.455V12.6562V10.6562H171.562V12.6562ZM174.455 12.6562H172.455V30.7148H174.455H176.455V12.6562H174.455ZM174.455 30.7148L176.174 31.7368C177.614 29.3139 178.238 26.989 178.238 23.5928L176.238 23.5928L174.238 23.5927C174.238 26.3653 173.763 27.9658 172.736 29.6929L174.455 30.7148ZM176.238 23.5928V25.5928H181.969V23.5928V21.5928H176.238V23.5928ZM181.969 23.5928H179.969V25.5557H181.969H183.969V23.5928H181.969ZM181.969 25.5557V27.5557H183.27V25.5557V23.5557H181.969V25.5557ZM183.27 25.5557H185.27V23.5928H183.27H181.27V25.5557H183.27ZM183.27 23.5928V25.5928H190.009V23.5928V21.5928H183.27V23.5928ZM190.009 23.5928H188.009V25.5557H190.009H192.009V23.5928H190.009ZM190.009 25.5557V27.5557H196.973V25.5557V23.5557H190.009V25.5557ZM196.973 25.5557H194.973V31.6123H196.973H198.973V25.5557H196.973ZM196.973 31.6123V29.6123H190.009V31.6123V33.6123H196.973V31.6123ZM190.009 31.6123H188.009V35.875H190.009H192.009V31.6123H190.009ZM190.009 35.875V37.875H196.973V35.875V33.875H190.009V35.875ZM196.973 35.875H194.973V41.9316H196.973H198.973V35.875H196.973ZM196.973 41.9316V39.9316H190.009V41.9316V43.9316H196.973V41.9316ZM190.009 41.9316H188.009V47.9883H190.009H192.009V41.9316H190.009ZM190.009 47.9883V45.9883H183.292V47.9883V49.9883H190.009V47.9883ZM183.292 47.9883H185.292V41.9316H183.292H181.292V47.9883H183.292ZM183.292 41.9316V39.9316H176.328V41.9316V43.9316H183.292V41.9316ZM176.328 41.9316H178.328V35.875H176.328H174.328V41.9316H176.328ZM176.328 35.875V37.875H183.292V35.875V33.875H176.328V35.875ZM183.292 35.875H185.292V31.6123H183.292H181.292V35.875H183.292ZM183.292 31.6123V29.6123H181.004V31.6123V33.6123H183.292V31.6123ZM181.004 31.6123L179.104 30.9867C178.846 31.7716 178.496 32.5152 177.968 33.3307L179.647 34.417L181.327 35.5033C182.033 34.4119 182.534 33.3598 182.904 32.2379L181.004 31.6123ZM179.647 34.417L180.302 32.5272L175.122 30.7323L174.467 32.6221L173.812 34.5119L178.993 36.3068L179.647 34.417ZM174.467 32.6221H172.467V38.7354H174.467H176.467V32.6221H174.467ZM174.467 38.7354L172.467 38.7353C172.467 42.1386 171.923 43.7476 171.12 44.5917C170.346 45.406 168.865 45.9883 165.585 45.9883V47.9883V49.9883C169.089 49.9883 172.049 49.4211 174.02 47.3474C175.962 45.3036 176.467 42.2861 176.467 38.7354L174.467 38.7354ZM165.585 47.9883H167.585V42.4922H165.585H163.585V47.9883H165.585ZM165.585 42.4922V44.4922C166.897 44.4922 168.433 44.267 169.58 43.125C170.723 41.9878 171.039 40.3831 171.039 38.7354L169.039 38.7354L167.039 38.7353C167.039 40.0036 166.771 40.2773 166.759 40.2895C166.752 40.297 166.561 40.4922 165.585 40.4922V42.4922ZM169.039 38.7354H171.039V36.9961H169.039H167.039V38.7354H169.039ZM169.039 36.9961V34.9961H162.075V36.9961V38.9961H169.039V36.9961ZM162.075 36.9961H164.075V36.4355H162.075H160.075V36.9961H162.075ZM162.075 36.4355L160.08 36.3025C159.824 40.1347 159.458 43.9734 159.034 47.7662L161.021 47.9883L163.009 48.2104C163.438 44.3761 163.81 40.4756 164.071 36.5686L162.075 36.4355ZM161.021 47.9883L161.489 46.0437L156.129 44.7547L155.661 46.6992L155.194 48.6438L160.554 49.9328L161.021 47.9883ZM155.661 46.6992L157.646 46.9472C158.891 36.9842 159.388 30.3945 159.388 15.124H157.388H155.388C155.388 30.2504 154.899 36.673 153.677 46.4512L155.661 46.6992ZM157.388 15.124L156.493 13.3353C155.915 13.6243 155.407 13.8832 154.833 14.1442L155.661 15.9648L156.489 17.7855C157.148 17.4858 157.739 17.1844 158.282 16.9128L157.388 15.124ZM155.661 15.9648H157.661V8.16992H155.661H153.661V15.9648H155.661ZM155.661 8.16992L156.448 10.0086C157.925 9.37674 158.976 8.3585 159.622 7.06467C160.241 5.82326 160.431 4.44339 160.431 3.12207H158.431H156.431C156.431 4.10017 156.284 4.79556 156.043 5.27888C155.828 5.70979 155.495 6.06577 154.874 6.3312L155.661 8.16992ZM158.431 3.12207V5.12207H173.782V3.12207V1.12207H158.431V3.12207ZM162.726 18.7129L160.726 18.6921C160.692 21.9145 160.636 24.9934 160.547 27.6188L162.546 27.6865L164.545 27.7543C164.635 25.0854 164.692 21.9721 164.725 18.7337L162.726 18.7129ZM162.546 27.6865L160.548 27.5882L160.358 31.4583L162.355 31.5566L164.353 31.6549L164.543 27.7848L162.546 27.6865ZM162.355 31.5566V33.5566H169.017V31.5566V29.5566H162.355V31.5566ZM169.017 31.5566H171.017V18.7129H169.017H167.017V31.5566H169.017ZM169.017 18.7129V16.7129H162.726V18.7129V20.7129H169.017V18.7129ZM196.95 3.12207H194.95V12.6562H196.95H198.95V3.12207H196.95ZM196.95 12.6562L194.95 12.6562C194.95 15.8811 194.183 17.6875 193.068 18.734C191.926 19.8058 190.008 20.4707 186.835 20.4707V22.4707V24.4707C190.446 24.4707 193.586 23.7335 195.805 21.6508C198.052 19.5426 198.95 16.4418 198.95 12.6563L196.95 12.6562ZM186.835 22.4707H188.835V16.4141H186.835H184.835V22.4707H186.835ZM186.835 16.4141V18.4141C188.147 18.4141 189.683 18.1886 190.831 17.0462C191.973 15.9089 192.289 14.3041 192.289 12.6563L190.289 12.6562L188.289 12.6562C188.289 13.9247 188.021 14.1988 188.009 14.2113C188.001 14.2188 187.811 14.4141 186.835 14.4141V16.4141ZM190.289 12.6562H192.289V9.17871H190.289H188.289V12.6562H190.289ZM190.289 9.17871V7.17871H186.655V9.17871V11.1787H190.289V9.17871ZM186.655 9.17871L184.666 8.97281C184.197 13.4984 182.986 17.5722 180.043 21.2136L181.599 22.4707L183.154 23.7278C186.738 19.2934 188.126 14.393 188.645 9.38461L186.655 9.17871ZM181.599 22.4707L182.334 20.6107L176.233 18.1996L175.498 20.0596L174.763 21.9196L180.864 24.3307L181.599 22.4707ZM175.498 20.0596L177.078 21.286C180.286 17.1531 181.518 13.3775 181.982 9.41091L179.995 9.17871L178.009 8.94651C177.62 12.2708 176.631 15.3387 173.918 18.8332L175.498 20.0596ZM179.995 9.17871V7.17871H176.294V9.17871V11.1787H179.995V9.17871ZM176.294 9.17871H178.294V3.12207H176.294H174.294V9.17871H176.294ZM176.294 3.12207V5.12207H196.95V3.12207V1.12207H176.294V3.12207ZM163.646 9.17871L161.857 8.28448C161.348 9.30126 160.633 10.2815 159.65 11.1798L160.999 12.6562L162.348 14.1327C163.697 12.8999 164.709 11.5238 165.434 10.0729L163.646 9.17871ZM160.999 12.6562V14.6562H164.632V12.6562V10.6562H160.999V12.6562ZM164.632 12.6562L166.381 13.626C167.128 12.2793 167.658 11.0069 168.092 9.92132L166.235 9.17871L164.378 8.4361C163.96 9.48171 163.504 10.5656 162.883 11.6865L164.632 12.6562ZM166.235 9.17871V7.17871H163.646V9.17871V11.1787H166.235V9.17871Z" fill="white" mask="url(#path-12-outside-1_11773_560)"/>
<path d="M170.864 24.4225C171.254 24.8131 171.254 25.4464 170.864 25.8369L166.574 30.1278C166.184 30.5184 165.551 30.5184 165.16 30.1278L160.87 25.8369C160.48 25.4464 160.48 24.8131 160.87 24.4225L165.16 20.1317C165.551 19.7411 166.184 19.7411 166.574 20.1317L170.864 24.4225Z" fill="#F3B5B0" stroke="white" stroke-width="2" stroke-linejoin="round"/>
<path d="M232.677 1C233.229 1 233.677 1.44772 233.677 2C233.677 2.05187 233.672 2.1026 233.664 2.15234C233.661 3.19172 233.625 4.20086 233.585 5.15039H247.524C248.076 5.15065 248.524 5.59826 248.524 6.15039V38.1738C248.524 41.7933 247.657 44.5676 245.696 46.416C243.748 48.2527 240.915 48.9883 237.409 48.9883H233.339C232.787 48.9883 232.339 48.5406 232.339 47.9883V41.9316C232.339 41.3794 232.787 40.9316 233.339 40.9316H237.409C238.462 40.9316 238.991 40.729 239.285 40.4365C239.582 40.1421 239.863 39.5348 239.863 38.1738V13.207H232.758C232.147 16.3782 231.371 18.6582 230.717 20.1865C230.362 21.0151 230.043 21.6225 229.808 22.0303C229.69 22.2337 229.593 22.3873 229.522 22.4941C229.487 22.5476 229.459 22.5899 229.438 22.6201C229.427 22.635 229.418 22.6469 229.411 22.6562C229.408 22.6609 229.405 22.6656 229.402 22.6689C229.401 22.6706 229.399 22.6716 229.398 22.6729L229.397 22.6748L229.396 22.6758L228.596 22.0781L229.396 22.6768C229.148 23.0089 228.72 23.1528 228.321 23.0391L224.582 21.9727L225.275 31.54C225.295 31.8168 225.2 32.0897 225.011 32.293C224.822 32.4963 224.556 32.6122 224.278 32.6123H219.492V33.1221C219.584 33.0945 219.681 33.0801 219.781 33.0801H224.278C224.83 33.0802 225.278 33.5279 225.278 34.0801V45.7451C225.278 46.2972 224.83 46.745 224.278 46.7451H219.781C219.681 46.7451 219.584 46.7298 219.492 46.7021V47.9883C219.492 48.5404 219.044 48.9881 218.492 48.9883H213.378C212.826 48.988 212.378 48.5404 212.378 47.9883V44.2637C212.165 45.4663 211.886 46.5805 211.516 47.5156C211.322 48.0046 210.782 48.26 210.281 48.0996L205.907 46.6973C205.646 46.6136 205.432 46.4263 205.312 46.1797C205.193 45.9329 205.181 45.6479 205.277 45.3916C205.808 43.9891 206.108 42.004 206.27 39.8516C206.429 37.7187 206.446 35.5078 206.446 33.6875C206.446 33.1353 206.894 32.6876 207.446 32.6875H212.066C212.175 32.6875 212.28 32.7051 212.378 32.7373V32.292C210.557 32.4933 208.491 32.6123 206.224 32.6123C205.672 32.6121 205.224 32.1643 205.224 31.6123V25.5547C205.224 25.3719 205.274 25.1924 205.369 25.0361L207.408 21.6758H206.224C205.672 21.6755 205.224 21.2279 205.224 20.6758V14.5625C205.224 14.3808 205.274 14.2025 205.367 14.0469L211.781 3.39062C212.049 2.94658 212.611 2.7812 213.077 3.00879L218.931 5.86816C219.182 5.99122 219.372 6.21462 219.451 6.4834C219.531 6.75219 219.493 7.04201 219.349 7.28223L215.572 13.5625H216.765C217.317 13.5625 217.765 14.0103 217.765 14.5625V18.8135C217.948 18.6475 218.186 18.5538 218.436 18.5537H221.976C222.992 16.1495 225.017 10.3494 225.017 2C225.017 1.44772 225.464 1 226.017 1H232.677ZM216.182 23.5596C216.717 23.4501 217.219 23.3357 217.684 23.2217L217.553 21.3027L216.182 23.5596Z" fill="#32322E" stroke="white" stroke-width="2" stroke-linejoin="round"/>
<path d="M236.757 27.4294C237.148 27.8199 237.148 28.4532 236.757 28.8438L232.468 33.1346C232.077 33.5252 231.444 33.5252 231.054 33.1346L226.764 28.8438C226.374 28.4532 226.374 27.8199 226.764 27.4294L231.054 23.1385C231.444 22.7479 232.077 22.7479 232.468 23.1385L236.757 27.4294Z" fill="#B0CCD0" stroke="white" stroke-width="2" stroke-linejoin="round"/>
</g>
<defs>
<filter id="filter0_d_11773_560" x="0" y="0" width="303.999" height="54" filterUnits="userSpaceOnUse" color-interpolation-filters="sRGB">
<feFlood flood-opacity="0" result="BackgroundImageFix"/>
<feColorMatrix in="SourceAlpha" type="matrix" values="0 0 0 0 0 0 0 0 0 0 0 0 0 0 0 0 0 0 127 0" result="hardAlpha"/>
<feOffset dy="2"/>
<feComposite in2="hardAlpha" operator="out"/>
<feColorMatrix type="matrix" values="0 0 0 0 0.65098 0 0 0 0 0.643137 0 0 0 0 0.635294 0 0 0 0.3 0"/>
<feBlend mode="normal" in2="BackgroundImageFix" result="effect1_dropShadow_11773_560"/>
<feBlend mode="normal" in="SourceGraphic" in2="effect1_dropShadow_11773_560" result="shape"/>
</filter>
</defs>
</svg>
