<svg width="22" height="22" viewBox="0 0 22 22" fill="none" xmlns="http://www.w3.org/2000/svg">
<path d="M14.3095 10.0502C16.7255 9.59978 21.0466 8.46953 18.9625 6.38808C17.7173 5.14439 17.4349 5.87353 16.3218 4.76365C15.2108 3.65205 15.9395 3.36875 14.6943 2.12511C12.6386 0.0720624 11.5197 4.25159 11.062 6.68616C10.6115 4.27011 9.48125 -0.0510001 7.39976 2.03307C6.15611 3.2783 6.88516 3.56065 5.77541 4.67371C4.66372 5.78489 4.38043 5.05614 3.13679 6.30137C1.08374 8.357 5.26327 9.47594 7.69783 9.93365C5.28183 10.3841 0.960719 11.5143 3.04479 13.5958C4.29002 14.8395 4.57241 14.1103 5.68552 15.2202C6.79652 16.3318 6.06786 16.6151 7.31305 17.8588C8.916 19.4597 9.94931 17.2709 10.5438 15.0748C10.536 15.266 10.5306 15.4572 10.5278 15.6485C10.5258 15.9149 10.5272 16.1868 10.5396 16.4606C10.5531 16.7345 10.5709 17.01 10.6052 17.2827C10.639 17.5553 10.6802 17.8252 10.7391 18.0864L10.76 18.184L10.7841 18.2806L10.8328 18.4713L10.8881 18.6573C10.8975 18.6879 10.9061 18.7185 10.9159 18.7487L10.9469 18.8384L11.0084 19.0143L11.0761 19.1834C11.1184 19.2952 11.1715 19.3997 11.2174 19.502C11.266 19.6033 11.319 19.6982 11.3667 19.7898L11.5182 20.0432L11.6651 20.2596C11.7109 20.3265 11.7589 20.3839 11.7995 20.4378C11.8802 20.5465 11.9538 20.6237 12.001 20.6791L12.0748 20.763C12.0956 20.7862 12.1207 20.8117 12.1448 20.8327C12.4586 21.1067 12.9352 21.0744 13.2092 20.7605C13.4832 20.4467 13.4509 19.9701 13.1371 19.6961L13.1154 19.6772L13.0566 19.6258C13.0189 19.5916 12.9589 19.5458 12.8924 19.4767C12.8589 19.4425 12.8185 19.4074 12.7797 19.364L12.6528 19.2236L12.5168 19.054C12.4728 18.9906 12.4233 18.926 12.3761 18.8545C12.3313 18.7813 12.279 18.7084 12.2347 18.6254L12.1637 18.5008L12.0961 18.3677L12.0614 18.2996C12.0502 18.2764 12.04 18.2524 12.029 18.2286L11.9632 18.0834L11.9016 17.931L11.8704 17.8533L11.8418 17.7733C11.762 17.5601 11.6946 17.3306 11.6321 17.0936C11.569 16.8567 11.5193 16.6091 11.4729 16.3595C11.4275 16.1096 11.392 15.8556 11.36 15.6042C11.3303 15.3564 11.3051 15.1081 11.2842 14.8594L11.2831 14.8458C11.8663 17.1402 12.9267 19.6336 14.6075 17.9508C15.8511 16.7056 15.1221 16.4232 16.2318 15.3102C17.3435 14.199 17.6268 14.9277 18.8704 13.6825C20.9236 11.6269 16.744 10.5079 14.3095 10.0502Z" fill="#42CC4B"/>
</svg>
