<svg width="238" height="280" viewBox="0 0 238 280" fill="none" xmlns="http://www.w3.org/2000/svg">
<g clip-path="url(#clip0_11773_617)">
<path fill-rule="evenodd" clip-rule="evenodd" d="M122.972 142.574C122.755 141.143 122.947 139.351 123.011 138.535C123.235 135.736 124.021 133.204 125.363 131.051C126.743 128.841 128.712 127.024 131.306 125.733C133.07 124.853 134.873 124.365 136.701 124.074C139.251 123.669 141.858 123.656 144.51 123.397C151.029 122.763 159.184 122.029 166.547 123.118C171.903 123.909 176.843 125.676 180.55 129.019C182.505 130.785 183.4 132.855 183.694 134.9C184.116 137.844 183.208 140.738 182.486 142.479L192.661 147.113C196.527 148.874 200.317 151.197 203.909 153.812C207.456 156.401 210.805 159.276 213.834 162.156C217.177 165.347 220.123 169.235 222.68 173.445C226.418 179.599 229.339 186.437 231.525 192.692C232.311 194.952 233.391 196.934 234.132 199.106C234.477 200.112 234.752 201.157 234.912 202.271C235.193 204.215 235.411 206.165 235.583 208.121C236.261 215.808 236.286 223.563 237.206 231.212C237.897 236.922 237.43 247.894 235.417 257.512C233.934 264.584 231.57 270.915 228.342 274.112C227.978 274.467 227.115 274.929 225.703 275.239C222.667 275.91 216.301 276.448 207.801 276.828C195.69 277.366 179.182 277.594 161.849 277.525C161.102 277.525 160.45 277.031 160.245 276.322L135.889 190.894L87.5532 191.426L54.4027 191.856C53.5016 191.869 52.7602 191.173 52.7155 190.28L52.4215 187.69C52.0188 184.145 51.4436 179.067 51.6482 174.338C51.8015 170.875 52.3831 167.595 53.6741 165.151C53.8531 164.809 54.1535 164.455 54.6136 164.132C55.2016 163.72 56.1603 163.309 57.3682 162.954C61.3306 161.789 68.2202 160.998 69.8244 160.84C71.7928 160.643 77.4553 160.187 81.8396 160.371C84.3704 160.479 86.5114 160.859 87.5596 161.473C88.269 161.891 88.857 162.758 89.1062 163.999C89.5344 166.145 89.0231 169.817 89.1062 170.786C89.2852 172.749 89.675 174.623 90.1096 176.465C90.2374 176.047 90.378 175.629 90.525 175.212C91.4709 172.54 92.7491 169.893 93.8484 167.576C97.2484 160.434 102.777 152.982 109.679 148.069C113.699 145.208 118.179 143.207 122.985 142.574H122.972Z" fill="#CBDAAB"/>
<path fill-rule="evenodd" clip-rule="evenodd" d="M164.584 14.726C164.136 14.6121 163.67 14.4981 163.171 14.4031C157.266 13.2065 147.673 13.1939 138.112 15.5871C127.982 18.1259 117.91 23.3682 112.126 32.6118C108.477 38.4493 105.997 47.8828 105.511 55.9679C105.236 60.5327 105.613 64.6733 106.694 67.5541C107.55 69.8333 108.879 71.3908 110.547 72.0746C111.212 72.3468 113.756 73.4041 115.36 73.7587C116.549 74.0246 117.469 73.803 117.865 73.5244C118.166 73.3218 118.543 72.923 118.926 72.4228L119.642 71.4794C120.185 71.8593 120.837 72.3088 121.035 72.3911C122.249 72.885 123.937 73.5624 125.432 73.7207C126.391 73.822 127.286 73.7144 128.046 73.3662C131.906 71.6061 134.341 69.6054 136.029 67.3641C137.307 65.6674 138.15 63.8123 138.847 61.78C139.109 62.0585 139.377 62.3054 139.659 62.5334C140.215 62.9892 140.828 63.3881 141.589 63.8123C143.41 64.8126 144.976 65.3255 146.561 65.4204C148.14 65.5154 149.757 65.2052 151.687 64.4581C153.253 63.8503 154.94 62.6663 156.435 61.2798C157.899 59.9186 159.177 58.3611 159.989 57.0315C161.682 54.2394 163.21 51.536 164.367 48.7312C164.846 50.6623 165.479 52.568 166.252 54.423C168.629 60.1275 172.304 65.3255 176.727 69.1559C178.657 70.821 179.961 71.3338 181.181 71.4035C181.916 71.4478 182.645 71.3212 183.495 71.0869C184.447 70.8273 185.617 70.4095 187.368 70.1499C187.72 70.0992 188.077 70.0676 188.429 70.0486C189.011 70.0233 189.586 70.0296 190.174 70.0359C190.218 70.0359 191.273 70.1309 191.688 70.1689C193.05 70.2892 193.599 69.0609 193.599 69.0546C194.98 64.9393 196.629 60.9759 196.494 54.8852C196.386 49.8519 195.05 43.3497 191.235 34.0617C190.372 31.9597 188.972 30.0983 187.528 28.5915C186.627 27.6545 185.713 26.8504 184.914 26.2173C186.115 25.6158 187.528 24.856 188.71 24.0773C189.982 23.2352 190.985 22.3235 191.426 21.5511C192.928 18.9363 194.053 14.8527 193.171 10.9083C192.462 7.72365 190.487 4.60234 186.358 2.39273C181.622 -0.13977 175.608 -0.715914 170.981 0.968201C167.396 2.26611 164.616 4.87459 163.683 8.88228C163.465 9.80664 163.478 10.6804 163.632 11.5414C163.811 12.5734 164.207 13.5864 164.565 14.669L164.59 14.7387L164.584 14.726Z" fill="#F0E396"/>
<path fill-rule="evenodd" clip-rule="evenodd" d="M139.64 192.034C139.346 190.989 138.719 190.109 137.895 189.489C137.071 188.868 136.048 188.507 134.955 188.507H5.357C4.59646 188.507 3.86149 188.684 3.19682 189.007C2.53215 189.337 1.94417 189.811 1.4904 190.407C1.03664 191.002 0.723473 191.692 0.589261 192.414C0.448657 193.135 0.474221 193.882 0.678736 194.611L23.661 276.474C23.955 277.512 24.5813 278.398 25.4058 279.019C26.2302 279.639 27.2528 280 28.3457 280H157.944C158.704 280 159.439 279.823 160.104 279.5C160.769 279.177 161.357 278.702 161.817 278.101C162.277 277.499 162.584 276.816 162.718 276.094C162.859 275.372 162.833 274.625 162.628 273.897L139.646 192.034H139.64ZM136.419 192.92L159.401 274.783C159.465 275.011 159.471 275.245 159.426 275.467C159.382 275.695 159.286 275.904 159.145 276.094C159.005 276.284 158.819 276.429 158.608 276.531C158.404 276.632 158.174 276.689 157.937 276.689H28.3457C28.0069 276.689 27.6874 276.575 27.4254 276.385C27.1697 276.189 26.9716 275.917 26.8821 275.587L3.89983 193.724C3.83592 193.496 3.82953 193.262 3.87427 193.04C3.91901 192.819 4.01487 192.597 4.15548 192.414C4.29608 192.224 4.48142 192.078 4.69233 191.977C4.89684 191.875 5.12692 191.818 5.36978 191.818H134.968C135.307 191.818 135.626 191.932 135.888 192.122C136.144 192.319 136.342 192.591 136.431 192.92H136.419ZM203.582 242.861C204.496 243.551 205.257 244.583 205.922 245.716C206.957 247.496 207.749 249.547 208.427 251.155C208.695 251.794 208.874 252.561 209.149 253.238C209.296 253.605 209.475 253.96 209.699 254.264C209.993 254.675 210.568 254.777 210.983 254.485C211.399 254.194 211.501 253.624 211.207 253.213C211.066 253.016 210.958 252.795 210.862 252.561C210.581 251.87 210.402 251.098 210.133 250.452C209.424 248.781 208.599 246.66 207.519 244.805C206.727 243.444 205.794 242.228 204.701 241.405C204.298 241.101 203.717 241.177 203.41 241.576C203.103 241.975 203.18 242.551 203.589 242.855L203.582 242.861ZM206.65 241.082L206.676 241.101C207.404 241.563 209.098 242.823 209.731 243.247C210.945 244.064 211.987 244.912 212.881 245.881C213.763 246.843 214.505 247.926 215.137 249.23C215.355 249.686 215.911 249.876 216.371 249.661C216.831 249.446 217.023 248.895 216.806 248.439C216.09 246.964 215.253 245.735 214.249 244.646C213.258 243.577 212.114 242.639 210.772 241.734C210.133 241.304 208.414 240.025 207.673 239.562C207.232 239.284 206.88 239.24 206.784 239.246C206.375 239.271 206.145 239.487 206.011 239.74C205.928 239.904 205.8 240.202 206.017 240.613C206.152 240.867 206.382 241.025 206.644 241.082H206.65ZM202.707 235.023L202.438 234.941C201.761 234.744 200.968 234.624 200.189 234.858C199.46 235.074 198.712 235.586 198.105 236.72C197.76 237.366 197.76 238.163 198.016 238.993C198.086 239.214 198.169 239.442 198.271 239.664C198.214 239.651 198.156 239.645 198.099 239.638C195.747 239.461 184.486 239.176 174.068 239.778C167.703 240.145 161.644 240.848 158.078 242.089C157.599 242.253 157.343 242.779 157.509 243.254C157.675 243.728 158.206 243.982 158.685 243.817C162.136 242.62 168.003 241.962 174.171 241.607C184.422 241.019 195.491 241.285 197.907 241.462C197.952 241.5 198.195 241.709 198.323 241.848C198.687 242.26 199.045 242.703 199.364 242.912C199.633 243.089 199.908 243.165 200.176 243.165C200.476 243.165 200.79 243.064 201.083 242.791C201.269 242.614 201.403 242.374 201.409 242.038C201.409 241.854 201.352 241.57 201.179 241.228C200.898 240.651 200.227 239.676 199.863 238.714C199.703 238.296 199.556 237.897 199.729 237.581C200.029 237.017 200.355 236.72 200.719 236.606C201.23 236.454 201.748 236.637 202.164 236.77C202.617 236.916 203.007 237.036 203.269 237.036C203.857 237.049 204.228 236.796 204.413 236.289C204.535 235.96 204.586 235.194 204.496 234.092C204.356 232.414 203.953 229.819 203.416 226.837C202.087 219.48 199.933 209.787 198.911 206.083C198.796 205.665 197.651 203.151 197.102 201.866C197.115 201.695 197.083 201.518 196.993 201.353C195.562 198.777 194.654 200.575 195.108 201.854C195.363 202.563 196.993 206.064 197.134 206.564C198.016 209.755 199.748 217.447 201.052 224.197C201.78 227.964 202.368 231.433 202.605 233.662C202.662 234.194 202.694 234.649 202.707 235.017V235.023ZM207.743 240.367C207.762 240.284 207.775 240.196 207.762 240.094C207.749 239.993 207.717 239.885 207.654 239.759C207.756 239.949 207.781 240.164 207.743 240.367ZM7.95177 195.693H133.594C134.105 195.693 134.514 195.282 134.514 194.781C134.514 194.281 134.099 193.87 133.594 193.87H7.95177C7.44049 193.87 7.03146 194.281 7.03146 194.781C7.03146 195.282 7.44688 195.693 7.95177 195.693ZM59.9623 165.911C59.6939 167.291 59.5149 168.849 59.3871 170.653C59.2465 172.66 59.1634 174.971 59.0867 177.681C59.0739 178.187 59.4702 178.605 59.9815 178.618C60.4928 178.63 60.9146 178.232 60.9273 177.731C61.004 175.047 61.0807 172.761 61.2213 170.773C61.3428 169.058 61.5089 167.57 61.7646 166.253C61.8604 165.759 61.5345 165.278 61.036 165.183C60.5375 165.088 60.0518 165.411 59.9559 165.905L59.9623 165.911ZM76.5088 165.493C76.7133 167.893 77.4738 170.729 77.902 173.394C78.081 174.521 78.2024 175.617 78.1832 176.623C78.1705 177.13 78.5795 177.548 79.0844 177.554C79.5957 177.567 80.0175 177.162 80.0239 176.661C80.043 175.547 79.9216 174.344 79.7171 173.103C79.2953 170.482 78.5347 167.696 78.3366 165.335C78.2919 164.835 77.8445 164.455 77.3396 164.499C76.8347 164.543 76.4513 164.987 76.496 165.487L76.5088 165.493ZM71.3384 165.848C71.5046 167.171 71.5685 168.507 71.5813 169.843C71.6004 171.888 71.511 173.945 71.4918 175.99C71.4918 176.497 71.8944 176.908 72.4057 176.915C72.917 176.915 73.3324 176.516 73.3388 176.009C73.358 173.952 73.4474 171.888 73.4283 169.824C73.4155 168.418 73.3452 167.013 73.1726 165.62C73.1087 165.12 72.6486 164.765 72.1437 164.828C71.6388 164.892 71.2809 165.347 71.3448 165.848H71.3384ZM65.2733 166.994C65.3116 167.791 65.3244 168.697 65.3308 169.64C65.3308 171.767 65.2733 174.097 65.2605 175.908C65.2605 176.414 65.6695 176.826 66.1744 176.826C66.6857 176.826 67.1011 176.421 67.1011 175.921C67.1139 174.104 67.1714 171.767 67.1714 169.634C67.1714 168.659 67.1523 167.728 67.1139 166.899C67.0883 166.392 66.6601 166.006 66.1488 166.031C65.6376 166.057 65.2477 166.487 65.2733 166.987V166.994ZM82.9957 165.366C83.1619 166.69 83.2258 168.026 83.2386 169.361C83.2577 171.413 83.1683 173.464 83.1491 175.509C83.1491 176.016 83.5517 176.427 84.063 176.433C84.5743 176.433 84.9897 176.035 84.9961 175.528C85.0153 173.47 85.1048 171.406 85.0856 169.342C85.0728 167.937 85.0025 166.531 84.8236 165.138C84.7596 164.638 84.2995 164.284 83.7946 164.347C83.2897 164.41 82.9318 164.866 82.9957 165.366ZM72.7892 118.667C73.3644 118.388 73.7542 117.793 73.7287 117.116C73.7159 116.73 74.0226 116.192 74.4061 115.514C75.1986 114.109 76.4768 112.412 77.8892 110.835C79.2953 109.271 80.8291 107.822 82.1585 106.935C82.7337 106.549 83.2066 106.22 83.5965 106.239C83.9991 106.258 85.1687 106.764 86.4916 107.302C88.5048 108.119 90.7545 109.12 91.5597 109.436C92.3522 109.753 93.3173 110.069 94.1226 110.474C94.3846 110.607 94.7361 110.873 94.8703 110.981C94.4869 112.159 93.4898 112.519 92.3906 112.576C89.6424 112.735 86.2871 111.31 85.1751 110.994C84.8939 110.911 84.5424 110.88 84.1333 110.994C83.7626 111.095 83.1044 111.462 82.395 112.095C81.3149 113.051 79.8769 114.659 79.0588 115.805C78.6114 116.432 78.3366 116.977 78.2471 117.312C77.4227 120.244 77.1095 121.985 77.3396 123.441C77.6016 125.106 78.5411 126.48 80.5863 128.734C80.893 129.177 81.4107 129.462 81.9987 129.456C83.6029 129.424 85.6288 129.278 87.5525 128.43C89.1951 127.708 90.7673 126.505 91.9752 124.46C93.1256 122.523 93.6241 119.458 94.8064 117.451C95.1387 116.882 95.5158 116.4 96.1357 116.286C96.4489 116.23 96.6918 116.185 96.8643 116.318C97.088 116.495 97.1391 116.825 97.1967 117.205C97.5226 119.344 96.6343 122.776 95.3496 126.258C93.4643 131.355 90.6778 136.591 88.786 138.06C88.2044 138.509 85.8142 140.415 83.3664 142.207C82.069 143.15 80.7588 144.068 79.6979 144.714C79.3784 144.904 79.1483 145.189 79.0205 145.505C78.8096 145.797 78.6945 146.151 78.7137 146.537L79.1739 157.484C79.2122 158.396 79.9919 159.105 80.9122 159.067C81.8325 159.029 82.5483 158.256 82.51 157.345L82.0818 147.145C83.0788 146.506 84.2228 145.708 85.3476 144.878C87.8337 143.061 90.2624 141.13 90.8503 140.668C91.9816 139.788 93.4515 137.819 94.8767 135.274C97.1136 131.285 99.3249 125.878 100.2 121.605C100.584 119.705 100.705 118.015 100.507 116.717C100.303 115.387 99.7659 114.393 98.9926 113.767C98.6027 113.45 98.1489 113.209 97.6121 113.07C97.8102 112.703 97.9828 112.285 98.117 111.829C98.5068 110.5 98.0914 109.423 97.1519 108.543C96.1613 107.613 94.2759 106.961 92.8316 106.384C91.7834 105.967 88.2683 104.396 86.0315 103.567C84.9833 103.181 84.1397 102.959 83.769 102.947C83.066 102.915 82.184 103.143 81.2126 103.662C79.5126 104.58 77.346 106.505 75.4223 108.651C74.5723 109.601 73.767 110.588 73.0704 111.544C73.0576 111.278 73.0448 111.013 73.0192 110.747C72.8083 108.334 72.7253 105.865 72.6997 103.383C72.6614 99.6733 72.7508 95.9252 72.7508 92.2847C72.885 91.4426 73.3452 88.0237 72.3865 85.9471C71.7858 84.6555 70.7632 83.7565 69.159 83.6298C68.047 83.5412 67.0819 83.9084 66.2639 84.5795C64.9473 85.6559 64.0781 87.6882 63.6372 88.9544C63.209 90.1764 62.9022 91.4616 62.6849 92.7849C62.4804 91.5503 62.18 90.3536 61.739 89.5559C60.9018 88.0491 59.6811 87.4729 58.2111 87.9541C56.9649 88.3656 56.0574 89.2393 55.4438 90.379C54.3382 92.4303 54.2806 95.482 54.1336 96.6406C53.878 98.6793 53.9163 100.883 54.1017 103.111C54.1848 104.137 54.2998 105.169 54.434 106.188C54.0825 105.333 53.6671 104.466 53.1175 103.523C52.734 102.871 51.6411 101.661 50.5674 101.155C49.6663 100.724 48.7651 100.718 48.0174 101.11C47.2888 101.497 46.7839 102.092 46.4707 102.826C46.0234 103.877 46.0362 105.302 46.0362 106.277C46.0362 107.866 46.3174 109.721 46.7647 111.601C47.3911 114.242 48.3306 116.939 49.1678 118.984C49.6343 120.117 50.0434 121.25 50.4204 122.39C52.0054 127.164 53.0152 131.95 54.9006 136.755C55.8145 139.085 56.9904 141.51 57.9555 143.973C58.5627 145.524 59.0803 147.094 59.3615 148.665C59.5724 149.842 59.6619 150.912 59.6811 151.944C59.7322 154.641 59.336 157.066 59.336 160.206C59.336 161.118 60.0837 161.859 61.004 161.859C61.9244 161.859 62.6721 161.118 62.6721 160.206C62.6721 157.041 63.0684 154.597 63.0172 151.881C62.9917 150.691 62.8894 149.45 62.6465 148.082C62.4037 146.74 62.0138 145.391 61.5409 144.055C60.5183 141.162 59.0867 138.294 58.013 135.559C56.1532 130.81 55.1626 126.075 53.5904 121.358C53.1878 120.149 52.7532 118.946 52.2611 117.743C51.475 115.837 50.5994 113.317 50.0178 110.854C49.6343 109.24 49.3787 107.651 49.3787 106.289C49.3787 105.872 49.3531 105.34 49.4042 104.814C49.417 104.688 49.4298 104.555 49.4618 104.434C49.7558 104.681 50.1264 105.011 50.2287 105.188C50.6952 105.986 51.0468 106.72 51.3407 107.442C52.1077 109.316 52.5295 111.101 53.4562 113.45C53.5329 113.653 53.9291 114.387 54.4276 115.273C55.3288 116.856 56.5878 118.996 56.5878 118.996C56.9968 119.693 57.8469 119.997 58.6074 119.718C59.3679 119.439 59.8153 118.661 59.6747 117.869L58.6074 111.912C58.2367 109.107 57.6871 105.948 57.4314 102.852C57.2653 100.857 57.2205 98.8819 57.4506 97.0521C57.5401 96.3114 57.5465 94.6589 57.9427 93.1394C58.1281 92.424 58.3454 91.6895 58.8758 91.3033C58.895 91.335 58.9078 91.3667 58.9206 91.392C59.1187 91.8478 59.2593 92.424 59.3743 93.0254C59.7833 95.1907 59.8089 97.7232 59.8536 98.0525L62.3078 116.983C62.4165 117.85 63.1898 118.477 64.0718 118.426C64.9537 118.369 65.6376 117.648 65.6376 116.78L65.6631 107.518C65.6695 104.124 65.4267 100.363 65.6312 96.7292C65.759 94.4057 66.0785 92.1327 66.8007 90.0561C67.0244 89.4166 67.3695 88.4796 67.9 87.7198C68.1684 87.3336 68.4369 86.9158 68.9034 86.9474C69.1463 86.9664 69.2677 87.15 69.3572 87.3463C69.4978 87.6565 69.5745 88.0237 69.6256 88.3973C69.8301 90.0244 69.453 91.8415 69.453 91.8415C69.4339 91.9491 69.4211 92.0568 69.4211 92.1707C69.4211 95.8682 69.3316 99.6669 69.3699 103.434C69.3955 105.998 69.485 108.556 69.7023 111.051C69.8365 112.576 69.7087 114.09 69.8621 115.584C69.9388 116.337 70.0794 117.084 70.3222 117.825C70.6098 118.692 71.5493 119.167 72.4249 118.889C72.5719 118.844 72.7061 118.775 72.8339 118.692L72.7892 118.667ZM172.068 130.019C172.79 131.614 173.059 133.235 173.033 134.856C172.988 137.389 172.234 139.927 171.339 142.397C171.167 142.871 171.416 143.397 171.895 143.568C172.375 143.739 172.905 143.492 173.078 143.017C174.043 140.358 174.835 137.617 174.88 134.888C174.912 133.001 174.593 131.121 173.755 129.272C173.544 128.81 173.001 128.607 172.535 128.81C172.068 129.019 171.864 129.557 172.068 130.019ZM165.268 129.512C165.37 130.665 165.389 131.747 165.357 132.798C165.281 135.451 164.897 137.914 164.801 140.712C164.782 141.219 165.185 141.637 165.69 141.656C166.201 141.675 166.629 141.276 166.642 140.776C166.738 137.977 167.115 135.508 167.198 132.855C167.23 131.728 167.211 130.576 167.102 129.348C167.057 128.848 166.61 128.474 166.099 128.518C165.594 128.563 165.217 129.006 165.262 129.512H165.268ZM133.389 128.841C133.019 130.5 132.054 134.337 132.181 137.243C132.258 139.003 132.776 140.44 133.792 141.156C134.207 141.447 134.783 141.352 135.077 140.94C135.371 140.529 135.275 139.959 134.859 139.668C134.533 139.44 134.354 139.054 134.22 138.592C134.016 137.876 133.977 136.996 134.022 136.059C134.137 133.508 134.885 130.595 135.185 129.228C135.294 128.734 134.981 128.246 134.482 128.139C133.984 128.031 133.492 128.341 133.383 128.835L133.389 128.841ZM141.634 128.455C141.947 128.31 142.158 127.993 142.158 127.626C142.158 127.119 141.742 126.714 141.231 126.714C140.618 126.714 140.189 127.024 139.947 127.613C139.812 127.93 139.748 128.379 139.736 128.86C139.723 129.335 139.755 129.848 139.723 130.222C139.557 132.254 139.461 134.267 139.589 136.262C139.678 137.623 139.876 138.978 140.228 140.32C140.356 140.807 140.86 141.099 141.353 140.972C141.845 140.845 142.139 140.345 142.017 139.858C141.698 138.63 141.519 137.389 141.436 136.141C141.308 134.236 141.41 132.311 141.57 130.367C141.595 130.025 141.583 129.569 141.583 129.126C141.583 128.917 141.615 128.626 141.64 128.455H141.634ZM157.292 128.607C157.496 130.5 157.535 132.343 157.432 134.179C157.33 136.027 157.087 137.87 156.749 139.75C156.659 140.244 156.998 140.719 157.496 140.807C157.995 140.896 158.474 140.561 158.564 140.067C158.915 138.11 159.164 136.198 159.267 134.274C159.375 132.343 159.337 130.405 159.12 128.405C159.062 127.904 158.608 127.543 158.104 127.594C157.599 127.651 157.228 128.101 157.286 128.601L157.292 128.607ZM150.537 128.316C150.677 128.069 150.703 127.759 150.575 127.48C150.402 127.1 150.134 126.993 149.98 126.942C149.629 126.828 149.252 126.866 148.939 127.271C148.875 127.36 148.734 127.632 148.696 128.075C148.626 129 148.696 131.52 148.696 131.861C148.696 132.381 148.683 132.893 148.67 133.406C148.6 135.515 148.427 137.598 148.402 139.712C148.396 140.219 148.805 140.63 149.309 140.637C149.821 140.643 150.236 140.238 150.243 139.737C150.268 137.636 150.447 135.565 150.511 133.47C150.53 132.938 150.537 132.406 150.537 131.868C150.537 131.551 150.46 129.278 150.517 128.322L150.537 128.316ZM148.9 128.253C148.9 128.253 148.907 128.272 148.913 128.278L148.894 128.246L148.9 128.253ZM91.841 115.9C91.1763 115.894 90.4924 115.824 89.8214 115.717C87.8657 115.4 85.9612 114.742 84.8363 114.368C84.0758 114.982 82.9893 116.16 82.2032 117.148C81.8709 117.565 81.481 118.18 81.4363 118.249C80.81 120.484 80.4457 121.801 80.6246 122.922C80.7908 123.985 81.4874 124.796 82.6889 126.113C83.7626 126.062 85.0025 125.916 86.1849 125.397C87.2586 124.922 88.2875 124.125 89.08 122.782C90.2048 120.883 90.7097 117.907 91.841 115.9ZM118.6 95.9252C118.754 97.1218 118.92 98.312 119.124 99.5023C119.444 101.338 119.866 103.162 120.486 104.966C121.336 107.429 122.646 109.689 124.301 111.62C125.995 113.602 128.046 115.242 130.328 116.432C131.945 117.274 133.466 117.964 134.885 118.528C134.885 118.623 134.885 118.724 134.898 118.825L135 122.042C135.032 122.953 135.805 123.669 136.725 123.643C137.646 123.612 138.368 122.846 138.336 121.934C138.298 120.756 138.285 120.104 138.285 119.731C140.26 120.339 141.953 120.706 143.315 120.946C144.312 121.124 145.468 121.32 146.6 121.383C147.462 121.427 148.312 121.396 149.086 121.244C149.987 121.067 150.575 120.193 150.396 119.294C150.217 118.395 149.335 117.819 148.427 117.996C147.916 118.097 147.354 118.104 146.779 118.078C145.788 118.021 144.772 117.844 143.896 117.692C142.305 117.413 140.221 116.945 137.742 116.071C135.978 115.451 134.016 114.621 131.875 113.507C129.97 112.513 128.257 111.139 126.838 109.487C125.452 107.866 124.346 105.973 123.637 103.903C123.074 102.263 122.697 100.61 122.409 98.9452C121.681 94.7982 121.464 90.5942 120.422 86.4536C120.179 85.4849 120.013 84.5226 119.744 83.5919C119.54 82.8701 119.271 82.161 118.894 81.4709C118.453 80.6668 117.444 80.3692 116.632 80.8061C115.897 81.1986 115.577 82.066 115.859 82.8258C115.309 82.3383 114.753 81.8508 114.146 81.4392C113.615 81.0847 113.053 80.7871 112.439 80.5719C111.57 80.268 110.618 80.7238 110.311 81.5912C110.004 82.4522 110.465 83.3956 111.34 83.6995C111.807 83.8641 112.209 84.1237 112.599 84.4149C113.379 85.0037 114.082 85.7128 114.842 86.308C115.079 86.4916 115.366 86.6815 115.66 86.8841C115.827 86.9981 116.101 87.245 116.133 87.2767C116.351 87.8528 116.862 88.2327 117.437 88.3213C117.738 89.7142 117.961 91.1134 118.153 92.5126C115.833 92.0884 113.564 91.1641 111.736 89.7585C109.602 88.1124 108.081 85.7825 107.895 82.8005C107.761 80.6731 108.394 76.982 110.024 74.8104C110.471 74.2089 110.989 73.7341 111.647 73.5568C112.216 73.4049 112.861 73.5188 113.596 73.8734C113.897 74.019 114.191 74.1963 114.478 74.3925C114.778 74.6015 115.066 74.8231 115.335 75.0573C116.031 75.6588 117.086 75.5891 117.693 74.9054C118.3 74.2216 118.23 73.1706 117.539 72.5691C117.175 72.2526 116.792 71.9487 116.383 71.6701C115.961 71.3789 115.52 71.1193 115.066 70.8977C113.456 70.1189 112.024 70.0303 110.79 70.3532C109.436 70.7077 108.279 71.5878 107.346 72.8287C105.269 75.5955 104.393 80.2869 104.566 82.9967C104.815 87.0107 106.822 90.151 109.691 92.3607C112.209 94.3044 115.405 95.5073 118.6 95.9252ZM182.198 90.6575C182.294 90.3853 182.377 90.1827 182.454 90.0561C182.907 89.2647 182.632 88.2517 181.827 87.7958C181.028 87.3463 180.006 87.6185 179.546 88.4163C178.875 89.5876 177.143 97.0521 175.149 103.054C174.407 105.295 173.627 107.315 172.829 108.632C171.486 110.861 168.994 112.855 166.227 114.374C163.402 115.919 160.283 116.97 157.701 117.16C156.781 117.23 156.09 118.028 156.161 118.939C156.231 119.851 157.036 120.535 157.95 120.465C159.727 120.332 161.727 119.864 163.74 119.129C163.689 119.851 163.689 120.674 163.785 121.598C163.881 122.504 164.706 123.169 165.619 123.074C166.54 122.979 167.204 122.162 167.109 121.257C167.025 120.446 167.032 119.737 167.089 119.129C167.153 118.464 167.275 117.926 167.39 117.508C167.537 117.432 167.684 117.35 167.831 117.268C171.141 115.451 174.068 113.001 175.679 110.329C176.567 108.854 177.468 106.6 178.306 104.086C179.437 100.693 180.447 96.7925 181.22 93.9498C181.226 93.9498 181.239 93.9498 181.246 93.9498C183.7 94.0764 186.205 93.5319 188.468 92.5316C190.807 91.4933 192.89 89.9738 194.379 88.2517C194.833 87.7325 195.197 87.1564 195.517 86.5549C196.137 85.3773 196.52 84.0667 197.051 82.9018C197.824 81.1923 198.265 79.1536 198.156 77.172C198.041 75.0953 197.332 73.082 195.862 71.4928C194.2 69.7011 192.047 68.5741 189.822 68.3272C187.579 68.0803 185.24 68.7007 183.208 70.4735C182.664 70.9483 181.923 71.6131 181.437 72.3032C181.092 72.7907 180.869 73.3036 180.785 73.7911C180.626 74.6901 181.239 75.5512 182.147 75.7031C183.054 75.8614 183.923 75.2536 184.077 74.3546C184.122 74.114 184.384 73.924 184.601 73.7024C184.876 73.4239 185.17 73.1706 185.406 72.9617C186.652 71.879 188.071 71.4675 189.445 71.6194C190.909 71.7841 192.302 72.5565 193.395 73.7341C194.328 74.7408 194.737 76.0323 194.814 77.3556C194.897 78.8054 194.571 80.2933 194.002 81.5532C193.561 82.5219 193.222 83.6045 192.756 84.6112C192.513 85.1367 192.232 85.6495 191.848 86.0927C190.653 87.4729 188.985 88.6759 187.106 89.5053C185.553 90.189 183.866 90.6196 182.179 90.6575H182.198ZM143.909 97.6726C143.462 96.8938 142.471 96.6089 141.666 97.0331C140.854 97.4637 140.547 98.4703 140.982 99.2744C141.327 99.9075 142.829 101.313 144.51 102.503C146.152 103.675 147.948 104.631 148.76 104.757C150.019 104.954 151.284 104.669 152.492 104.054C154.595 102.991 156.544 100.864 157.893 99.5593C158.551 98.9198 158.564 97.8689 157.918 97.2167C157.273 96.5646 156.218 96.5519 155.554 97.1914C154.544 98.1728 153.163 99.7239 151.623 100.724C150.862 101.218 150.076 101.604 149.271 101.484C148.721 101.402 147.577 100.61 146.453 99.8125C145.673 99.2617 144.925 98.6666 144.395 98.1791C144.184 97.9828 143.922 97.6979 143.903 97.6726H143.909ZM149.361 82.7245C149.226 82.7245 148.843 82.7435 148.626 82.7561C148.242 82.7751 147.878 82.8321 147.539 82.9587C147.136 83.1044 146.766 83.3323 146.453 83.6805C145.814 84.3833 145.481 85.1937 145.366 86.0611C145.232 87.0551 145.405 88.1377 145.622 89.1064C145.73 89.5812 145.877 90.2967 146.101 90.8791C146.274 91.316 146.491 91.6895 146.74 91.9681C147.347 92.6519 148.408 92.7215 149.099 92.1137C149.776 91.5249 149.853 90.5056 149.284 89.8155C149.265 89.7458 148.971 88.7455 148.881 88.372C148.766 87.8528 148.638 87.2893 148.658 86.7385C148.664 86.5106 148.69 86.2763 148.805 86.0737C148.996 86.0737 149.341 86.0547 149.54 86.0421C150.044 86.0104 150.524 85.8901 150.933 85.6622C151.815 85.1684 152.409 84.339 152.741 83.3386C153.112 82.2243 153.125 80.9074 153.01 79.9767C152.895 79.0713 152.058 78.4256 151.144 78.5395C150.23 78.6535 149.578 79.4829 149.693 80.3882C149.738 80.7681 149.757 81.2556 149.693 81.7431C149.642 82.1167 149.623 82.5282 149.354 82.7371L149.361 82.7245ZM183.713 84.6049C183.892 84.4466 184.083 84.2946 184.281 84.1553C184.582 83.9401 184.895 83.7438 185.202 83.5665C186.211 82.9777 187.202 82.4079 188.263 81.9964C188.896 81.7495 189.554 81.5659 190.257 81.4772C191.171 81.3633 191.816 80.5275 191.701 79.6222C191.586 78.7168 190.743 78.0773 189.829 78.1913C188.845 78.3179 187.924 78.5712 187.049 78.9131C185.828 79.3879 184.678 80.0337 183.508 80.7111C183.029 80.9897 182.537 81.3063 182.076 81.6545C181.744 81.9077 181.431 82.1737 181.15 82.4586C181.028 82.5789 180.46 83.2626 180.332 83.6172C180.178 84.0667 180.223 84.4592 180.332 84.7631C180.46 85.124 180.683 85.4216 181.035 85.6432C181.278 85.7951 181.693 86.0104 182.383 85.8838C183.067 85.7635 183.578 85.238 183.719 84.6049H183.713ZM181.878 82.6105H181.904H181.885H181.878ZM135.588 78.9764C135.997 79.3626 136.559 79.5842 137.243 79.5525C138.157 79.5145 139.288 78.8561 139.64 78.4066C140.368 77.4759 140.528 75.7094 139.895 74.3989C139.397 73.3732 138.502 72.6514 137.32 72.5501C134.993 72.3539 133.715 74.2343 133.786 76.0956C133.817 77.0833 134.252 78.014 134.987 78.5965C135.166 78.7421 135.371 78.8687 135.588 78.97V78.9764ZM161.28 78.989C161.401 79.027 161.529 79.0587 161.663 79.084C162.584 79.2233 163.255 78.97 163.74 78.5902C164.392 78.0773 164.789 77.1656 164.718 76.0703C164.654 75.0826 164.207 73.9304 163.593 73.1706C163.121 72.5945 162.545 72.2209 161.983 72.0753C161.005 71.822 160.193 72.0247 159.554 72.4488C158.711 73.006 158.155 74.0507 158.104 75.2029C158.033 76.8427 158.954 78.5585 160.928 78.9574C161.043 78.9827 161.158 78.989 161.274 78.989H161.28ZM164.884 70.6888C164.725 70.5621 164.559 70.4418 164.386 70.3342C163.204 69.5871 161.746 69.2832 160.053 69.5555C159.407 69.6568 158.749 69.8657 158.193 70.2202C157.79 70.4735 157.439 70.809 157.183 71.2269C156.985 71.5371 157.087 71.955 157.401 72.1449C157.72 72.3412 158.129 72.2399 158.327 71.9297C158.519 71.6194 158.8 71.3979 159.113 71.2396C159.471 71.056 159.874 70.942 160.264 70.885C161.587 70.6698 162.731 70.885 163.651 71.4738C164.584 72.069 165.294 73.0313 165.76 74.2659C165.888 74.6141 166.278 74.7851 166.629 74.6584C166.974 74.5318 167.153 74.1456 167.025 73.7974C166.712 72.9807 166.31 72.2589 165.824 71.6574C165.945 71.5182 166.092 71.3852 166.239 71.2649C166.514 71.037 166.815 70.8344 167.089 70.6571C167.403 70.4545 167.492 70.043 167.294 69.7327C167.096 69.4225 166.674 69.3339 166.361 69.5301C165.977 69.777 165.556 70.0683 165.185 70.3975C165.076 70.4925 164.974 70.6001 164.878 70.7014L164.884 70.6888ZM132.725 71.094L132.737 71.1129C132.961 71.4865 133.191 71.8537 133.466 72.1133C133.492 72.1386 133.517 72.1576 133.543 72.1766C133.223 72.5185 132.936 72.8984 132.578 73.1769C132.284 73.4049 132.233 73.8227 132.456 74.114C132.686 74.4052 133.108 74.4558 133.402 74.2279C133.83 73.8987 134.169 73.4428 134.559 73.044C134.68 72.9174 134.814 72.7971 134.961 72.7021C135.748 72.1829 136.572 71.9613 137.39 71.9867C138.247 72.012 139.097 72.2969 139.908 72.7591C140.234 72.9427 140.643 72.8287 140.829 72.5122C141.014 72.1893 140.899 71.7841 140.579 71.6004C139.563 71.0243 138.496 70.6824 137.428 70.6508C136.476 70.6254 135.524 70.8344 134.604 71.3535C134.565 71.3345 134.527 71.3282 134.489 71.3155C134.361 71.2902 134.278 71.1826 134.188 71.075C134.009 70.847 133.856 70.5685 133.696 70.3025C134.546 69.5744 135.3 68.7704 135.927 67.9473C136.706 66.9216 137.294 65.9023 137.735 64.826C137.914 64.3955 138.068 63.9523 138.202 63.4964C139.186 64.5791 140.4 65.3072 141.742 65.7504C145.839 67.1179 151.361 65.5921 155.113 62.9456C158.244 60.736 160.532 57.621 162.187 54.0945C164.546 49.0738 165.607 43.2301 166.073 38.222C166.156 37.3103 165.479 36.5063 164.565 36.424C163.645 36.3417 162.833 37.0128 162.75 37.9181C162.315 42.5843 161.357 48.0292 159.164 52.7016C157.758 55.6963 155.841 58.3681 153.176 60.2485C150.741 61.9706 147.379 63.1735 144.465 62.933C141.864 62.724 139.704 61.1982 139.18 57.6653C139.071 56.9309 138.694 56.6523 138.572 56.5574C138.087 56.1585 137.582 56.1015 137.096 56.2218C136.853 56.2788 136.112 56.5004 135.856 57.4564C135.799 57.678 135.716 58.5454 135.677 58.8936L135.371 60.8816C135.217 61.863 134.993 62.743 134.655 63.5724C134.316 64.3891 133.869 65.1616 133.274 65.9466C131.843 67.8207 129.574 69.5808 127.209 70.2392C125.132 70.8217 122.978 70.4545 121.457 68.2575C120.933 67.5041 119.891 67.3142 119.131 67.827C118.37 68.3462 118.179 69.3782 118.696 70.1316C120.69 73.0123 123.355 73.981 126.072 73.7911C128.36 73.6328 130.718 72.5691 132.718 71.0876L132.725 71.094ZM158.072 63.4711C158.219 63.2685 158.487 63.1546 158.755 63.0469C159.171 62.876 159.618 62.7557 159.976 62.6544C161.267 62.2618 162.731 62.2365 164.073 62.5974C165.37 62.9393 166.565 63.6484 167.351 64.75C167.671 65.1932 168.291 65.3008 168.745 64.9906C169.192 64.6741 169.301 64.0599 168.988 63.6167C167.927 62.1289 166.342 61.1539 164.597 60.6917C162.89 60.2422 161.031 60.2738 159.395 60.7677C158.807 60.9449 158.008 61.1665 157.381 61.5211C156.998 61.7427 156.678 62.0149 156.448 62.3315C156.129 62.7747 156.237 63.3951 156.685 63.7117C157.132 64.0283 157.758 63.9206 158.078 63.4774L158.072 63.4711ZM126.276 39.482C125.854 41.9195 125.202 44.3001 124.397 46.6363C123.585 48.9852 122.608 51.2771 121.547 53.5247C121.329 53.9806 121.527 54.525 121.988 54.7403C122.448 54.9556 122.997 54.7593 123.215 54.3034C124.308 51.9989 125.311 49.6436 126.142 47.2314C126.985 44.8066 127.656 42.3247 128.097 39.7922C128.187 39.292 127.848 38.8235 127.343 38.7349C126.838 38.6462 126.366 38.9818 126.276 39.482ZM176.248 44.338C176.388 44.6736 176.721 45.5093 176.765 45.6739C177.29 47.567 177.398 49.5867 177.731 51.5367C177.884 52.4421 178.082 53.3348 178.382 54.1895C178.549 54.6643 179.073 54.9239 179.552 54.7593C180.031 54.5947 180.293 54.0755 180.127 53.6007C179.865 52.8346 179.686 52.0432 179.552 51.2328C179.207 49.2258 179.085 47.1428 178.542 45.1928C178.459 44.8825 177.941 43.4263 177.603 43.0211C177.341 42.7109 177.034 42.6159 176.817 42.6096C176.542 42.597 176.267 42.6793 176.031 42.9325C175.685 43.306 175.711 43.8822 176.088 44.2241C176.139 44.2684 176.19 44.3064 176.241 44.338H176.248ZM180.44 42.578C180.869 44.414 181.233 46.1994 181.572 47.9912C181.91 49.7893 182.217 51.5937 182.517 53.4487C182.601 53.9489 183.073 54.2845 183.578 54.2085C184.083 54.1262 184.422 53.6577 184.345 53.1638C184.039 51.2898 183.732 49.4727 183.393 47.6556C183.054 45.8386 182.677 44.0278 182.249 42.1728C182.134 41.6789 181.642 41.375 181.143 41.489C180.645 41.6029 180.338 42.0905 180.453 42.5843L180.44 42.578ZM186.269 48.1621C186.525 48.9915 186.761 49.7956 186.914 50.6187C187.01 51.1441 187.068 51.6696 187.074 52.2268C187.081 52.7333 187.502 53.1385 188.007 53.1258C188.519 53.1195 188.921 52.7016 188.915 52.2015C188.909 51.5493 188.838 50.9162 188.723 50.2958C188.563 49.4031 188.308 48.5293 188.027 47.624C187.873 47.1428 187.355 46.8705 186.87 47.0225C186.384 47.1744 186.109 47.681 186.263 48.1685L186.269 48.1621ZM134.802 35.6959C134.367 38.2094 133.881 41.5016 132.872 44.4077C132.213 46.3007 131.338 48.0355 130.072 49.2321C129.702 49.5803 129.689 50.1565 130.04 50.5237C130.392 50.8909 130.973 50.9036 131.344 50.5553C132.808 49.1751 133.856 47.1934 134.616 45.0028C135.665 41.9955 136.176 38.6019 136.623 35.9998C136.706 35.5059 136.368 35.0311 135.869 34.9488C135.364 34.8665 134.891 35.1957 134.802 35.6959ZM151.335 27.5475C151.693 29.5925 151.482 31.7452 151.003 33.8915C150.262 37.2154 148.881 40.5203 147.833 43.3757C147.577 44.0785 147.207 45.2434 146.651 46.1741C146.37 46.6553 146.063 47.0858 145.635 47.2314C145.149 47.396 144.893 47.9152 145.059 48.3901C145.226 48.8712 145.75 49.1245 146.229 48.9599C146.868 48.7446 147.43 48.2634 147.903 47.6176C148.702 46.516 149.233 44.9142 149.565 44.0025C150.639 41.0774 152.045 37.6902 152.805 34.284C153.336 31.9035 153.547 29.5039 153.157 27.2373C153.067 26.7371 152.594 26.4079 152.09 26.4902C151.585 26.5789 151.252 27.0474 151.335 27.5475ZM143.161 31.5046C143.046 34.0561 142.426 36.8608 141.57 39.6086C140.701 42.3754 139.589 45.0788 138.47 47.396C138.253 47.8519 138.445 48.3964 138.905 48.6116C139.365 48.8269 139.915 48.637 140.132 48.1811C141.506 45.3257 142.88 41.9068 143.82 38.4816C144.465 36.1264 144.906 33.7648 145.002 31.5869C145.027 31.0804 144.631 30.6562 144.12 30.6309C143.609 30.6055 143.18 30.9981 143.155 31.5046H143.161ZM177.296 44.2684L177.334 44.2367C177.334 44.2367 177.29 44.2747 177.264 44.2937L177.296 44.2684ZM172.771 5.62239C170.387 6.61006 168.943 9.35783 168.534 12.3525C168.138 15.2586 168.713 18.3419 170.074 20.083C170.387 20.4819 170.969 20.5515 171.371 20.2476C171.774 19.9374 171.844 19.3612 171.538 18.9624C170.419 17.5378 170.042 14.9863 170.368 12.5994C170.681 10.2885 171.646 8.07258 173.487 7.31283C173.953 7.11656 174.177 6.58474 173.985 6.11622C173.787 5.65404 173.25 5.43245 172.777 5.62239H172.771ZM180.217 7.23053C181.214 8.76902 181.667 10.8963 181.751 13.049C181.834 15.2586 181.52 17.4935 180.932 19.1966C180.766 19.6715 181.028 20.1969 181.508 20.3552C181.987 20.5198 182.517 20.2603 182.677 19.7854C183.329 17.905 183.681 15.4232 183.591 12.9793C183.495 10.4848 182.926 8.02827 181.77 6.24285C181.495 5.81866 180.926 5.69203 180.498 5.96427C180.07 6.23652 179.942 6.8 180.223 7.2242L180.217 7.23053ZM177.909 9.7567C177.162 9.90232 176.478 10.4152 175.915 11.1876C174.778 12.7514 174.12 15.4168 174.043 16.4868C174.005 16.9933 174.388 17.4302 174.893 17.4682C175.404 17.5062 175.845 17.1263 175.884 16.6261C175.935 15.9677 176.248 14.5875 176.785 13.3845C177.059 12.7704 177.385 12.2069 177.782 11.8334C177.858 11.7637 177.929 11.7004 178.005 11.6561C177.973 14.2456 177.334 16.9237 176.759 19.2663C176.638 19.7538 176.944 20.2539 177.437 20.3679C177.929 20.4882 178.434 20.1843 178.549 19.6968C179.175 17.1579 179.852 14.2519 179.852 11.4535C179.852 9.4528 179.514 7.5091 178.606 5.77434C178.37 5.32482 177.814 5.14754 177.36 5.3818C176.906 5.61606 176.734 6.16687 176.964 6.61639C177.475 7.59774 177.769 8.65506 177.903 9.7567H177.909Z" fill="#32322E"/>
</g>
<defs>
<clipPath id="clip0_11773_617">
<rect width="237" height="280" fill="white" transform="translate(0.5)"/>
</clipPath>
</defs>
</svg>
