<svg width="22" height="22" viewBox="0 0 22 22" fill="none" xmlns="http://www.w3.org/2000/svg">
<path d="M20.8349 17.0895C20.8349 17.9457 20.3459 18.7286 19.5729 19.0968C18.1135 19.792 15.3327 20.7288 10.9443 20.7288C6.55595 20.7288 3.77514 19.792 2.31575 19.0968C1.54274 18.7286 1.05371 17.9457 1.05371 17.0895C1.05371 15.8594 2.05084 14.8623 3.28087 14.8623H18.6077C19.8378 14.8623 20.8349 15.8594 20.8349 17.0895Z" fill="#E59328"/>
<path d="M20.749 13.696C20.749 12.8398 20.2599 12.0569 19.4869 11.6887C18.0275 10.9935 15.2467 10.0566 10.8584 10.0566C6.47001 10.0566 3.6892 10.9935 2.22981 11.6887C1.4568 12.0569 0.967773 12.8398 0.967773 13.696C0.967773 13.7084 0.968504 13.7206 0.968719 13.7329C0.968504 13.7452 0.967773 13.7574 0.967773 13.7697C0.967773 14.6259 1.4568 15.4089 2.22981 15.7771C3.6892 16.4723 6.47001 17.4091 10.8584 17.4091C15.2467 17.4091 18.0275 16.4723 19.4869 15.7771C20.2599 15.4089 20.749 14.6259 20.749 13.7697C20.749 13.7574 20.7482 13.7452 20.748 13.7329C20.7482 13.7205 20.749 13.7083 20.749 13.696Z" fill="#7A2F18"/>
<path d="M11.0794 15.8851C16.0965 15.8851 20.1637 14.4997 20.1637 12.7907C20.1637 11.0817 16.0965 9.69629 11.0794 9.69629C6.06229 9.69629 1.99512 11.0817 1.99512 12.7907C1.99512 14.4997 6.06229 15.8851 11.0794 15.8851Z" fill="#DB1D1D"/>
<path d="M11.0794 14.7073C16.0965 14.7073 20.1637 13.3219 20.1637 11.6129C20.1637 9.90396 16.0965 8.51855 11.0794 8.51855C6.06229 8.51855 1.99512 9.90396 1.99512 11.6129C1.99512 13.3219 6.06229 14.7073 11.0794 14.7073Z" fill="#FF473E"/>
<path d="M20.9256 9.66358C19.8872 9.0872 18.3697 8.86041 17.0356 8.86101C16.3079 8.86135 15.567 8.93728 14.8724 9.07929C14.3314 9.18989 13.8027 9.32984 13.2463 9.40186C13.153 9.40571 13.0596 9.40658 12.9663 9.40448C12.9023 9.39457 12.8386 9.38284 12.7753 9.36929C12.5447 9.29181 12.3256 9.20111 12.102 9.11444C11.7438 8.97561 11.3686 8.86707 10.9827 8.76467C10.3038 8.58459 9.58884 8.49874 8.8612 8.45581C7.48715 8.37473 6.0706 8.58184 4.84891 8.99795C4.65328 9.0141 4.46028 9.05358 4.27403 9.11556C3.02695 9.53145 1.97078 10.1953 1.22901 10.9706C1.07148 11.1352 0.932007 11.3074 0.812297 11.4852C0.551347 11.8729 0.317254 12.2717 0.548726 12.7005C0.982109 13.5033 2.27732 13.7961 3.4688 13.6078C4.29062 13.4778 4.93145 13.1218 5.57594 12.785C5.7375 12.7085 5.90474 12.6386 6.08112 12.5787C6.10072 12.5745 6.12027 13.3013 6.13999 13.2975C6.30525 13.3967 6.46088 13.5026 6.62979 13.5994C6.91751 13.7643 7.22534 13.9231 7.55268 14.0533C8.22303 14.32 9.02479 14.4908 9.81356 14.486C10.6194 14.4811 11.3891 14.3122 12.025 13.9897C12.3638 13.8178 12.6416 13.6152 12.8564 13.3683C12.9349 13.278 13.0028 13.1845 13.0772 13.0933C13.138 13.1038 13.598 12.5252 13.7584 12.6015C14.1601 12.8128 14.5522 13.035 14.9875 13.2152C15.5894 13.4645 16.2977 13.6142 17.0121 13.6154C18.3877 13.6179 19.6854 13.0967 20.6404 12.4826C21.1332 12.1657 21.5941 11.7451 21.7296 11.2923C21.9091 10.6924 21.6532 10.0675 20.9256 9.66358ZM6.83978 10.6028C7.1271 10.5412 7.41729 10.4938 7.7093 10.4609C8.11213 10.4356 8.51616 10.4356 8.919 10.4609C9.29721 10.5036 9.66691 10.5688 10.0263 10.6571C10.3114 10.7472 10.5792 11.5863 10.852 11.6901C10.5756 11.9041 10.4199 12.1595 10.1922 12.3956C10.1807 12.4034 10.1687 12.411 10.1568 12.4186C10.1273 12.4304 10.0975 12.4417 10.0676 12.4524C10.0116 12.4638 9.9554 12.4737 9.89894 12.4823C9.82661 12.4843 9.75423 12.4842 9.68191 12.4821C9.57402 12.466 9.46676 12.446 9.36037 12.422C9.1894 12.3655 9.02171 12.2995 8.85807 12.2244C8.5581 12.0563 8.28675 11.8683 7.97355 11.7094C7.6353 11.5379 7.25129 10.6718 6.83978 10.6028ZM18.1248 11.2772C17.906 11.3802 17.6781 11.473 17.437 11.5512C17.3299 11.5754 17.222 11.5956 17.1134 11.6117C17.0574 11.6131 17.0014 11.6132 16.9454 11.612C16.8899 11.6033 16.8345 11.5931 16.7795 11.5816C16.5878 11.5163 16.4076 11.4387 16.2329 11.3549C16.0268 11.2457 15.823 11.1329 15.6141 11.0251C15.8996 10.9669 16.1873 10.9157 16.4829 10.8805C16.859 10.8575 17.2362 10.8577 17.6123 10.8812C17.9204 10.9166 18.2263 10.9687 18.5288 11.0373C18.4012 11.1221 18.2654 11.2013 18.1248 11.2772Z" fill="#00B89C"/>
<path d="M4.94319 14.2674C4.36651 13.3346 3.25796 11.615 1.87295 9.82487C-0.117107 10.1626 15.7432 7.48926 15.7432 7.48926C20.1722 7.95577 20.7572 10.147 20.7595 11.2642C20.7602 11.6218 20.4535 11.9031 20.0968 11.8779C10.6085 11.2061 7.05588 13.3241 5.88576 14.4002C5.60066 14.6623 5.14687 14.5968 4.94319 14.2674Z" fill="#FECB21"/>
<path d="M10.8584 1.09961C5.56483 1.09961 0.967773 4.44292 0.967773 8.47004C0.967773 10.6172 5.39592 12.3579 10.8584 12.3579C16.3208 12.3579 20.749 10.6172 20.749 8.47004C20.749 4.55683 16.1519 1.09961 10.8584 1.09961Z" fill="#E59328"/>
<path d="M4.65589 5.72824L5.07101 6.6277C5.09454 6.67868 5.09685 6.73692 5.07744 6.7896C5.05803 6.84229 5.01848 6.8851 4.9675 6.90863C4.93785 6.92216 4.9055 6.92873 4.87293 6.92783C4.84035 6.92693 4.80841 6.91858 4.77956 6.90343L3.90446 6.43924C3.63813 6.29796 3.53673 5.96753 3.67801 5.70121C3.81929 5.43489 4.14972 5.33348 4.41604 5.47476C4.52166 5.53062 4.60595 5.6197 4.65589 5.72824ZM13.4065 2.5452C13.1402 2.40392 12.8098 2.50532 12.6685 2.77164C12.5272 3.03796 12.6286 3.36839 12.8949 3.50967L13.77 3.97387C13.7989 3.98901 13.8308 3.99736 13.8634 3.99826C13.896 3.99916 13.9283 3.9926 13.958 3.97906C14.009 3.95554 14.0485 3.91272 14.0679 3.86004C14.0873 3.80735 14.085 3.74911 14.0615 3.69813L13.6464 2.79867C13.5964 2.69015 13.5121 2.60108 13.4065 2.5452ZM8.4823 3.65134C8.3094 3.40436 7.969 3.34433 7.72201 3.51728C7.47503 3.69023 7.415 4.03058 7.58795 4.27757L8.15613 5.08903C8.17493 5.11565 8.19958 5.1376 8.22818 5.15322C8.25678 5.16884 8.28857 5.1777 8.32113 5.17914C8.37723 5.18135 8.43191 5.1612 8.47316 5.12311C8.51441 5.08503 8.53886 5.03212 8.54113 4.97603L8.58062 3.9862C8.58548 3.86681 8.55093 3.74915 8.4823 3.65134ZM18.516 6.0646C18.6466 5.77958 18.5215 5.44267 18.2365 5.31208C17.9515 5.18146 17.6146 5.30663 17.484 5.5916L17.1637 6.29044C17.1461 6.32894 17.1399 6.3717 17.146 6.4136C17.152 6.45551 17.1701 6.49478 17.1979 6.52671C17.2257 6.55863 17.2621 6.58187 17.3028 6.59362C17.3434 6.60538 17.3866 6.60516 17.4272 6.59298L18.1634 6.37169C18.3132 6.32593 18.4456 6.21812 18.516 6.0646ZM10.4183 8.37C10.1219 8.3147 9.83681 8.51008 9.78146 8.80643C9.72616 9.10279 9.92154 9.38789 10.2179 9.44323L11.1917 9.62499C11.2238 9.63083 11.2567 9.62926 11.2881 9.6204C11.3194 9.61153 11.3483 9.59561 11.3726 9.57385C11.3932 9.5552 11.41 9.53267 11.4219 9.50755C11.4338 9.48242 11.4406 9.4552 11.442 9.42743C11.4434 9.39966 11.4393 9.3719 11.4299 9.34571C11.4206 9.31953 11.4062 9.29544 11.3875 9.27483L10.7228 8.54033C10.6428 8.45165 10.5357 8.39179 10.4183 8.37ZM15.6669 9.19732C15.7876 9.47361 16.1094 9.59972 16.3857 9.47902C16.662 9.35832 16.7881 9.03653 16.6674 8.76024L16.2708 7.85248C16.2576 7.82267 16.2378 7.79628 16.2128 7.77531C16.1879 7.75434 16.1585 7.73937 16.1268 7.73153C16.0998 7.72495 16.0718 7.72375 16.0443 7.72802C16.0168 7.73228 15.9905 7.74191 15.9667 7.75636C15.9429 7.77081 15.9223 7.7898 15.9059 7.81224C15.8894 7.83469 15.8776 7.86014 15.871 7.88716L15.6367 8.84966C15.6084 8.96572 15.619 9.08788 15.6669 9.19732ZM7.46721 8.92606C7.50184 8.62313 7.28433 8.3495 6.9814 8.31487C6.67847 8.28024 6.40485 8.49774 6.37022 8.80067L6.25648 9.796C6.25365 9.82141 6.25628 9.84714 6.2642 9.87145C6.27211 9.89576 6.28513 9.9181 6.30237 9.93698C6.33438 9.97183 6.37893 9.99253 6.4262 9.99453C6.47348 9.99654 6.51961 9.97969 6.55447 9.94768L7.2922 9.26994C7.39002 9.18011 7.45216 9.05801 7.46721 8.92606ZM12.4704 7.12756C12.7534 7.2315 13.0671 7.08635 13.171 6.80336C13.275 6.52037 13.1298 6.20669 12.8468 6.10275L11.9169 5.76124C11.8863 5.75013 11.8535 5.74619 11.8211 5.7497C11.7887 5.75322 11.7576 5.7641 11.73 5.78152C11.6827 5.81173 11.6493 5.8595 11.6372 5.91433C11.6251 5.96916 11.6353 6.02655 11.6655 6.07388L12.1985 6.90889C12.2626 7.00967 12.3582 7.08651 12.4704 7.12756Z" fill="#FFCD7D"/>
</svg>
