<svg width="22" height="22" viewBox="0 0 22 22" fill="none" xmlns="http://www.w3.org/2000/svg">
<path d="M21.8772 7.77717C21.8772 5.65559 20.1573 3.93568 18.0357 3.93568C16.7097 3.93568 15.5406 4.60758 14.8502 5.62947C14.7699 2.93395 12.5598 0.773438 9.84481 0.773438C7.07904 0.773438 4.83689 3.01555 4.83689 5.78136C4.83689 7.85185 6.09347 9.62878 7.88557 10.3914C7.88234 10.4088 7.87985 10.4264 7.87702 10.4439H6.21056C5.69798 10.4439 5.28243 10.8594 5.28243 11.372V13.8168L1.51055 11.9818C0.875387 11.6728 0.0693359 12.0458 0.0693359 12.6487V18.6464C0.0693359 19.2493 0.87543 19.6223 1.51055 19.3133L5.28243 17.4784V19.9231C5.28243 20.4357 5.69798 20.8512 6.21056 20.8512H18.9893C19.5019 20.8512 19.9174 20.4357 19.9174 19.9231V11.372C19.9174 11.2929 19.9065 11.2165 19.8878 11.1432C21.0737 10.4892 21.8772 9.2272 21.8772 7.77717Z" fill="#2B3B47"/>
<path d="M4.13015 13.2558L2.7002 12.5601V18.7341L4.13015 18.0385V13.2558ZM13.6863 5.78095C13.6863 7.90253 11.9664 9.62244 9.84478 9.62244C7.7232 9.62244 6.00329 7.90253 6.00329 5.78095C6.00329 3.65936 7.7232 1.93945 9.84478 1.93945C11.9664 1.93945 13.6863 3.65932 13.6863 5.78095ZM18.0357 4.83C16.4083 4.83 15.0889 6.14932 15.0889 7.77676C15.0889 9.4042 16.4083 10.7235 18.0357 10.7235C19.6631 10.7235 20.9825 9.4042 20.9825 7.77676C20.9825 6.14932 19.6631 4.83 18.0357 4.83Z" fill="#597B91"/>
<path d="M11.8412 5.78097C11.8412 6.88325 10.9477 7.77678 9.84542 7.77678C8.74319 7.77678 7.84961 6.8832 7.84961 5.78097C7.84961 4.67873 8.74319 3.78516 9.84542 3.78516C10.9477 3.78516 11.8412 4.67869 11.8412 5.78097ZM18.0363 5.78097C16.934 5.78097 16.0405 6.67455 16.0405 7.77678C16.0405 8.87902 16.9341 9.77259 18.0363 9.77259C19.1385 9.77259 20.0321 8.87902 20.0321 7.77678C20.0321 6.67455 19.1386 5.78097 18.0363 5.78097ZM16.33 19.4922H8.90007C8.62958 19.4922 8.41031 19.2729 8.41031 19.0024V17.0703C8.41031 16.7998 8.62958 16.5806 8.90007 16.5806H16.33C16.6005 16.5806 16.8197 16.7998 16.8197 17.0703V19.0024C16.8197 19.2729 16.6005 19.4922 16.33 19.4922Z" fill="#ADB8BC"/>
<path d="M10.6502 18.9773C11.1696 18.9773 11.5905 18.5563 11.5905 18.037C11.5905 17.5177 11.1696 17.0967 10.6502 17.0967C10.1309 17.0967 9.70996 17.5177 9.70996 18.037C9.70996 18.5563 10.1309 18.9773 10.6502 18.9773Z" fill="#FF473E"/>
<path d="M14.1611 18.5756H13.2117C12.9432 18.5756 12.7256 18.358 12.7256 18.0895V17.9832C12.7256 17.7147 12.9433 17.4971 13.2117 17.4971H14.1611C14.4296 17.4971 14.6473 17.7147 14.6473 17.9832V18.0895C14.6473 18.358 14.4296 18.5756 14.1611 18.5756Z" fill="#2B3B47"/>
</svg>
