<svg width="22" height="22" viewBox="0 0 22 22" fill="none" xmlns="http://www.w3.org/2000/svg">
<path d="M18.0898 13.6456C18.0898 13.6532 18.0786 13.6605 18.0784 13.6681C18.0786 13.683 18.0692 13.6979 18.0692 13.7129C18.0692 15.1876 16.8737 16.383 15.399 16.383C13.9244 16.383 12.7289 15.1876 12.7289 13.7129C12.7289 12.2382 13.9243 11.0428 15.399 11.0428C15.7917 11.0428 16.1562 11.1283 16.4999 11.2805V5.6506L9.02338 9.78239V18.9753C9.02338 19.0085 9.01612 19.0392 9.01208 19.0687C8.96279 20.5 7.78313 21.6455 6.33977 21.6455C4.86512 21.6455 3.66797 20.45 3.66797 18.9753C3.66797 17.5006 4.86005 16.3052 6.33474 16.3052C6.72919 16.3052 7.08974 16.3914 7.43349 16.5449V6.00423C7.43349 5.71862 7.59793 5.45548 7.84805 5.31737L16.9106 0.319335C17.1538 0.185144 17.4545 0.18957 17.6938 0.330636C17.9329 0.471702 18.0898 0.728655 18.0898 1.00623L18.0898 13.6456Z" fill="#00B1FF"/>
</svg>
