<svg width="23" height="22" viewBox="0 0 23 22" fill="none" xmlns="http://www.w3.org/2000/svg">
<path d="M7.34005 16.9145C5.96862 15.543 5.63441 13.297 5.63673 11.3483C5.63957 8.27926 7.63147 5.19024 11.4464 4.28218C12.7651 3.84506 14.1885 3.9203 15.6604 4.15873C16.4782 4.29125 17.8761 5.11203 18.379 5.75339C18.6777 6.13426 18.9434 6.81991 19.4479 7.30525C19.9144 7.75418 20.6236 8.35665 19.9668 9.39387C19.3122 10.4299 17.8032 10.431 16.7637 9.77427L14.3947 7.91007C12.9325 7.67246 11.3276 9.05235 10.9358 10.5076L7.34005 16.9145Z" fill="#F2C7AA"/>
<path d="M20.1905 14.4902C19.0882 13.9579 17.7563 14.4216 17.224 15.5285C16.6174 16.7873 15.1919 17.435 13.8439 17.0729C12.2916 16.656 11.3686 15.0545 11.7855 13.5009C12.158 12.1174 13.4769 9.9442 14.8623 9.93745C14.9255 9.93728 14.988 9.95046 15.0457 9.97612C15.1035 10.0018 15.1551 10.0393 15.1973 10.0863L17.6135 12.7676C18.653 13.4244 20.1619 13.4232 20.8165 12.3872C21.4733 11.35 20.7641 10.7475 20.2976 10.2986C19.7931 9.81323 19.5274 9.12758 19.2287 8.7467C18.7258 8.10539 17.9158 5.89018 16.6654 5.25064C15.338 4.57169 9.05882 4.14376 7.55392 7.05511C6.21437 9.15998 2.79887 13.3354 1.0647 14.6277C0.754745 14.8586 0.51769 15.1738 0.381755 15.5356C0.245821 15.8974 0.216735 16.2907 0.297961 16.6686L1.02319 20.0413C1.23605 21.0314 2.1503 21.71 3.15964 21.627L3.69034 21.5834C4.07953 21.5515 4.45105 21.4072 4.75975 21.168L4.87615 21.0779C5.11032 20.8965 5.38157 20.769 5.67059 20.7044C5.95962 20.6397 6.25934 20.6395 6.54845 20.7038C7.57871 20.9327 9.36544 21.2872 11.2911 21.4789C12.2312 21.654 13.324 21.6999 14.6458 21.7014H14.6481C16.1518 21.7014 18.1941 20.7335 19.4114 19.3666C19.8539 18.8697 19.8784 17.7784 20.1791 17.1539C20.7114 16.0482 21.2962 15.0225 20.1905 14.4902Z" fill="#FFD3B6"/>
<path d="M21.4408 16.3504L22.0249 17.7295C22.0459 17.7791 22.0463 17.835 22.0261 17.8849C22.0059 17.9348 21.9667 17.9746 21.9172 17.9956C21.8921 18.0062 21.8652 18.0116 21.838 18.0116C21.8109 18.0116 21.7839 18.0062 21.7589 17.9956L20.3798 17.4115C19.9681 17.2372 19.7757 16.7621 19.95 16.3505C20.1244 15.9388 20.5995 15.7464 21.0111 15.9207C21.212 16.0058 21.3615 16.1644 21.4408 16.3504Z" fill="#2B2622"/>
<path d="M20.6829 14.4248L21.7499 17.0609L21.0902 17.7206L18.4541 16.6537L20.6829 14.4248Z" fill="#FFE1AB"/>
<path d="M6.10101 3.80659L7.83686 2.07074C7.90842 1.99918 8.00547 1.95898 8.10666 1.95898C8.20786 1.95898 8.30491 1.99918 8.37646 2.07074L20.627 14.3212C20.6604 14.3546 20.6791 14.3999 20.6791 14.4471C20.6791 14.4943 20.6604 14.5396 20.627 14.573L18.6033 16.5967C18.5699 16.6301 18.5246 16.6488 18.4774 16.6488C18.4302 16.6488 18.3849 16.6301 18.3515 16.5967L6.10101 4.34619C6.02946 4.27463 5.98926 4.17758 5.98926 4.07639C5.98926 3.97519 6.02946 3.87814 6.10101 3.80659Z" fill="#FFB636"/>
<path d="M4.42758 1.37317L5.4025 0.398256C5.76164 0.0391231 6.34391 0.0391231 6.70304 0.398256L7.53435 1.22957C7.56774 1.26296 7.5865 1.30825 7.5865 1.35547C7.5865 1.40269 7.56774 1.44798 7.53435 1.48137L5.5107 3.50503C5.47731 3.53841 5.43202 3.55717 5.3848 3.55717C5.33758 3.55717 5.29229 3.53841 5.2589 3.50503L4.42758 2.67371C4.06841 2.31458 4.06841 1.73231 4.42758 1.37317Z" fill="#FF6E83"/>
<path d="M9.03478 2.73008L6.75937 5.00553L5.20605 3.45221L7.48146 1.17676L9.03478 2.73008Z" fill="#B9C5C6"/>
<path d="M5.77728 4.02344L5.57129 3.81745L7.84679 1.54199L8.05278 1.74798L5.77728 4.02344ZM8.62426 2.31955L8.41827 2.11356L6.14282 4.38906L6.34881 4.59505L8.62426 2.31955Z" fill="#96A9B2"/>
<path d="M15.3446 21.1339C15.4117 21.291 15.4837 21.4461 15.5604 21.5988C16.9027 21.316 18.4264 20.4719 19.4107 19.3666C19.8532 18.8697 19.8776 17.7785 20.1783 17.1539C20.7106 16.0482 21.2955 15.0224 20.1898 14.4901C19.0874 13.9578 17.7555 14.4216 17.2232 15.5285C16.7253 16.5619 15.6753 17.1829 14.5696 17.172C14.5607 17.2887 14.5559 17.4057 14.5549 17.5227C14.5492 18.1642 14.6478 18.8057 14.7942 19.4289C14.9308 20.01 15.1109 20.5842 15.3446 21.1339Z" fill="#FFD3B6"/>
</svg>
