<svg width="22" height="22" viewBox="0 0 22 22" fill="none" xmlns="http://www.w3.org/2000/svg">
<path d="M14.8566 0.545898H13.1336C13.0515 0.545898 12.9729 0.578493 12.9148 0.636512C12.8568 0.694531 12.8242 0.773222 12.8242 0.855273V1.15416C12.8242 1.19479 12.8322 1.23502 12.8478 1.27256C12.8633 1.31009 12.8861 1.3442 12.9148 1.37293C12.9729 1.43094 13.0515 1.46354 13.1336 1.46354H14.8566C14.8972 1.46354 14.9374 1.45554 14.9749 1.43999C15.0125 1.42444 15.0466 1.40165 15.0753 1.37293C15.104 1.3442 15.1268 1.31009 15.1424 1.27256C15.1579 1.23502 15.1659 1.19479 15.1659 1.15416V0.855273C15.1659 0.773222 15.1333 0.694531 15.0753 0.636512C15.0173 0.578493 14.9386 0.545898 14.8566 0.545898Z" fill="#8F9799"/>
<path d="M16.8248 2.13398V20.1867C16.8248 20.8702 16.2708 21.4242 15.5873 21.4242H6.4123C5.72884 21.4242 5.1748 20.8702 5.1748 20.1867V2.13398C5.1748 1.45052 5.72884 0.896484 6.4123 0.896484H15.5873C16.2708 0.896484 16.8248 1.45052 16.8248 2.13398Z" fill="#464A4C"/>
<path d="M15.9695 2.88828V17.926C15.9695 18.2677 15.6925 18.5448 15.3507 18.5448H6.65C6.30827 18.5448 6.03125 18.2677 6.03125 17.926V2.88828C6.03125 2.54655 6.30827 2.26953 6.65 2.26953H15.3507C15.6925 2.26953 15.9695 2.54655 15.9695 2.88828Z" fill="#CAD6D8"/>
<path d="M6.03125 14.638V2.8032C6.03125 2.50844 6.28163 2.26953 6.59053 2.26953H13.3505L6.03125 14.638Z" fill="#F4F9F9"/>
<path d="M10.1096 20.5404H11.89C12.1975 20.5404 12.4469 20.2911 12.4469 19.9835V19.9631C12.4469 19.6556 12.1975 19.4062 11.89 19.4062H10.1096C9.80204 19.4062 9.55273 19.6556 9.55273 19.9631V19.9835C9.55273 20.2911 9.80204 20.5404 10.1096 20.5404Z" fill="#8F9799"/>
</svg>
