<svg width="22" height="22" viewBox="0 0 22 22" fill="none" xmlns="http://www.w3.org/2000/svg">
<path d="M2.5155 13.8125H19.4929C19.7303 13.8125 19.9438 13.9663 20.0324 14.2011L21.9577 19.3042C21.9855 19.3778 21.9998 19.4563 21.9998 19.5356V20.0054C21.9998 20.3478 21.7394 20.6254 21.4183 20.6254H0.708449C0.387301 20.6254 0.126953 20.3478 0.126953 20.0054V19.5289C0.126953 19.454 0.139672 19.3797 0.164551 19.3096L1.9716 14.2133C2.05711 13.9721 2.27367 13.8125 2.5155 13.8125Z" fill="#ADB8BC"/>
<path d="M2.62329 0.828125H19.4417C19.7261 0.828125 19.9566 1.05865 19.9566 1.34302V13.3162C19.9566 13.6006 19.7261 13.8311 19.4417 13.8311H2.62329C2.33893 13.8311 2.1084 13.6006 2.1084 13.3162V1.34302C2.10836 1.05865 2.33893 0.828125 2.62329 0.828125Z" fill="#C5CFD1"/>
<path d="M3.71838 2.91699H18.3475C18.6407 2.91699 18.8784 3.15465 18.8784 3.44787V12.1719C18.8784 12.465 18.6407 12.7027 18.3475 12.7027H3.71838C3.4252 12.7027 3.1875 12.4651 3.1875 12.1719V3.44787C3.1875 3.1547 3.4252 2.91699 3.71838 2.91699Z" fill="#00B1FF"/>
<path d="M18.2887 2.38311C18.5458 2.38311 18.7542 2.17471 18.7542 1.91763C18.7542 1.66055 18.5458 1.45215 18.2887 1.45215C18.0316 1.45215 17.8232 1.66055 17.8232 1.91763C17.8232 2.17471 18.0316 2.38311 18.2887 2.38311Z" fill="#FF473E"/>
<path d="M16.8844 2.38311C17.1415 2.38311 17.3499 2.17471 17.3499 1.91763C17.3499 1.66055 17.1415 1.45215 16.8844 1.45215C16.6273 1.45215 16.4189 1.66055 16.4189 1.91763C16.4189 2.17471 16.6273 2.38311 16.8844 2.38311Z" fill="#D7F4F7"/>
<path d="M5.22941 16.839L5.01654 17.4427C4.97895 17.5494 4.87024 17.6217 4.74752 17.6217H3.35705C3.16536 17.6217 3.02928 17.4512 3.08802 17.2846L3.30089 16.6809C3.33849 16.5742 3.4472 16.5019 3.56992 16.5019H4.96038C5.15207 16.5019 5.28815 16.6724 5.22941 16.839ZM8.38517 16.5019H6.97901C6.84577 16.5019 6.73061 16.5869 6.70268 16.7058L6.56084 17.3095C6.52311 17.4701 6.65722 17.6216 6.83717 17.6216H8.24333C8.37657 17.6216 8.49173 17.5367 8.51966 17.4177L8.6615 16.814C8.69922 16.6534 8.56512 16.5019 8.38517 16.5019ZM15.5664 17.3095L15.4246 16.7058C15.3966 16.5869 15.2815 16.5019 15.1482 16.5019H13.7421C13.5621 16.5019 13.428 16.6534 13.4657 16.814L13.6076 17.4177C13.6355 17.5367 13.7507 17.6216 13.8839 17.6216H15.2901C15.47 17.6216 15.6041 17.4702 15.5664 17.3095ZM12.0673 17.3271L11.9727 16.7234C11.9528 16.5963 11.8336 16.5019 11.6929 16.5019H10.4345C10.2939 16.5019 10.1746 16.5963 10.1547 16.7233L10.06 17.327C10.0356 17.4825 10.1677 17.6216 10.3397 17.6216H11.7876C11.9596 17.6216 12.0917 17.4825 12.0673 17.3271ZM16.4962 19.3945L16.2267 18.7726C16.2062 18.6417 16.0834 18.5445 15.9385 18.5445H6.37741C6.23256 18.5445 6.10976 18.6417 6.08922 18.7726L5.81963 19.3944C5.79449 19.5546 5.93062 19.6979 6.10782 19.6979H16.208C16.3852 19.698 16.5213 19.5547 16.4962 19.3945ZM19.0392 17.2846L18.8263 16.6809C18.7887 16.5742 18.68 16.5019 18.5573 16.5019H17.1668C16.9751 16.5019 16.8391 16.6724 16.8978 16.839L17.1107 17.4427C17.1483 17.5494 17.257 17.6217 17.3797 17.6217H18.7702C18.9618 17.6216 19.0979 17.4511 19.0392 17.2846ZM5.53436 14.6613H4.27469C4.16349 14.6613 4.06504 14.7269 4.03097 14.8235L3.83813 15.3704C3.78493 15.5213 3.90821 15.6757 4.08185 15.6757H5.34152C5.45272 15.6757 5.55116 15.6102 5.58524 15.5136L5.77808 14.9667C5.83132 14.8158 5.70804 14.6613 5.53436 14.6613ZM8.63705 14.6613H7.36315C7.24245 14.6613 7.13813 14.7383 7.11282 14.8461L6.9843 15.393C6.9501 15.5385 7.07161 15.6757 7.23463 15.6757H8.50853C8.62923 15.6757 8.73356 15.5988 8.75887 15.491L8.88738 14.9441C8.92159 14.7986 8.80012 14.6613 8.63705 14.6613ZM15.1429 15.393L15.0144 14.8461C14.9891 14.7383 14.8847 14.6613 14.764 14.6613H13.4902C13.3271 14.6613 13.2056 14.7986 13.2398 14.9441L13.3683 15.491C13.3936 15.5988 13.498 15.6757 13.6187 15.6757H14.8926C15.0556 15.6757 15.1771 15.5385 15.1429 15.393ZM11.9729 15.4089L11.8872 14.862C11.8692 14.7469 11.7611 14.6614 11.6337 14.6614H10.4936C10.3662 14.6614 10.2582 14.7469 10.2401 14.862L10.1543 15.4089C10.1322 15.5498 10.2519 15.6758 10.4078 15.6758H11.7195C11.8753 15.6757 11.995 15.5497 11.9729 15.4089ZM18.2891 15.3704L18.0963 14.8235C18.0622 14.7268 17.9637 14.6613 17.8526 14.6613H16.5929C16.4192 14.6613 16.296 14.8158 16.3492 14.9667L16.542 15.5136C16.5761 15.6103 16.6746 15.6757 16.7857 15.6757H18.0454C18.219 15.6757 18.3423 15.5213 18.2891 15.3704ZM10.4368 2.13845H11.5019C11.5929 2.13845 11.6802 2.10229 11.7445 2.03794C11.8089 1.97359 11.845 1.88631 11.845 1.7953C11.845 1.70429 11.8089 1.61701 11.7445 1.55265C11.6802 1.4883 11.5929 1.45215 11.5019 1.45215H10.4368C10.3458 1.45215 10.2585 1.4883 10.1942 1.55265C10.1298 1.61701 10.0936 1.70429 10.0936 1.7953C10.0936 1.84036 10.1025 1.88499 10.1198 1.92662C10.137 1.96826 10.1623 2.00609 10.1941 2.03795C10.226 2.06982 10.2638 2.09509 10.3055 2.11234C10.3471 2.12958 10.3917 2.13845 10.4368 2.13845Z" fill="#1C4C5A"/>
</svg>
