<svg width="144" height="144" viewBox="0 0 144 144" fill="none" xmlns="http://www.w3.org/2000/svg">
<rect width="144" height="144" rx="72" fill="#FFFBF6"/>
<g filter="url(#filter0_d_11798_454)">
<mask id="path-2-outside-1_11798_454" maskUnits="userSpaceOnUse" x="30.6328" y="28.4199" width="83" height="89" fill="black">
<rect fill="white" x="30.6328" y="28.4199" width="83" height="89"/>
<path d="M67.5703 30.4199C66.9823 38.1921 65.5962 43.2339 63.4121 48.2754H68.8301V82.0957C71.1401 78.2096 72.1699 74.5334 72.1699 68.7568H82.9014V72.4326H85.3369V68.7568H97.959V72.4326H111V83.7764H97.959V91.7588H111V103.102H97.959V114.445H85.3789V103.102H72.3379V91.7588H85.3789V83.7764H81.0947C80.5067 85.5617 79.7086 87.242 78.5537 89.0273L68.8516 85.667V97.1152C68.8516 110.139 64.9242 114.445 52.2188 114.445V104.152C56.5028 104.152 58.6865 102.577 58.6865 97.1152V93.8594H45.6455V92.8086C45.1625 100.056 44.4689 107.303 43.6709 114.445L33.6328 112.03C35.9429 93.5445 36.8672 81.3603 36.8672 52.8965C35.8172 53.4216 34.7878 53.9465 33.6328 54.4717V39.8721C37.5597 38.1916 38.8202 34.726 38.8203 30.4199H67.5703ZM46.8633 59.6182C46.8003 65.668 46.6954 71.4663 46.5273 76.4238L46.1699 83.6709H58.6445V59.6182H46.8633ZM110.956 30.4199V48.2754C110.956 61.4041 104.719 66.6552 92.0137 66.6553V55.3125C96.2976 55.3124 98.4813 53.7367 98.4814 48.2754V41.7627H91.6777C90.7537 50.6904 88.3172 59.093 82.2061 66.6553L70.7812 62.1396C76.3255 54.9974 78.4051 48.5898 79.2031 41.7627H72.2725V30.4199H110.956ZM48.585 41.7627C47.4299 44.0734 45.813 46.2798 43.6289 48.2754H50.4336C51.7146 45.9647 52.6385 43.7583 53.4365 41.7627H48.585Z"/>
</mask>
<path d="M67.5703 30.4199C66.9823 38.1921 65.5962 43.2339 63.4121 48.2754H68.8301V82.0957C71.1401 78.2096 72.1699 74.5334 72.1699 68.7568H82.9014V72.4326H85.3369V68.7568H97.959V72.4326H111V83.7764H97.959V91.7588H111V103.102H97.959V114.445H85.3789V103.102H72.3379V91.7588H85.3789V83.7764H81.0947C80.5067 85.5617 79.7086 87.242 78.5537 89.0273L68.8516 85.667V97.1152C68.8516 110.139 64.9242 114.445 52.2188 114.445V104.152C56.5028 104.152 58.6865 102.577 58.6865 97.1152V93.8594H45.6455V92.8086C45.1625 100.056 44.4689 107.303 43.6709 114.445L33.6328 112.03C35.9429 93.5445 36.8672 81.3603 36.8672 52.8965C35.8172 53.4216 34.7878 53.9465 33.6328 54.4717V39.8721C37.5597 38.1916 38.8202 34.726 38.8203 30.4199H67.5703ZM46.8633 59.6182C46.8003 65.668 46.6954 71.4663 46.5273 76.4238L46.1699 83.6709H58.6445V59.6182H46.8633ZM110.956 30.4199V48.2754C110.956 61.4041 104.719 66.6552 92.0137 66.6553V55.3125C96.2976 55.3124 98.4813 53.7367 98.4814 48.2754V41.7627H91.6777C90.7537 50.6904 88.3172 59.093 82.2061 66.6553L70.7812 62.1396C76.3255 54.9974 78.4051 48.5898 79.2031 41.7627H72.2725V30.4199H110.956ZM48.585 41.7627C47.4299 44.0734 45.813 46.2798 43.6289 48.2754H50.4336C51.7146 45.9647 52.6385 43.7583 53.4365 41.7627H48.585Z" fill="#32322E"/>
<path d="M67.5703 30.4199L69.5646 30.5708C69.6066 30.0157 69.4154 29.4683 69.0369 29.0601C68.6584 28.6519 68.127 28.4199 67.5703 28.4199V30.4199ZM63.4121 48.2754L61.5769 47.4804C61.3091 48.0985 61.3705 48.81 61.7403 49.3731C62.11 49.9362 62.7384 50.2754 63.4121 50.2754V48.2754ZM68.8301 48.2754H70.8301C70.8301 47.1708 69.9346 46.2754 68.8301 46.2754V48.2754ZM68.8301 82.0957H66.8301C66.8301 82.9962 67.4319 83.7856 68.3002 84.0242C69.1685 84.2628 70.0891 83.8917 70.5493 83.1177L68.8301 82.0957ZM72.1699 68.7568V66.7568C71.0654 66.7568 70.1699 67.6523 70.1699 68.7568L72.1699 68.7568ZM82.9014 68.7568H84.9014C84.9014 67.6523 84.0059 66.7568 82.9014 66.7568V68.7568ZM82.9014 72.4326H80.9014C80.9014 73.5372 81.7968 74.4326 82.9014 74.4326V72.4326ZM85.3369 72.4326V74.4326C86.4415 74.4326 87.3369 73.5372 87.3369 72.4326H85.3369ZM85.3369 68.7568V66.7568C84.2323 66.7568 83.3369 67.6523 83.3369 68.7568H85.3369ZM97.959 68.7568H99.959C99.959 67.6523 99.0636 66.7568 97.959 66.7568V68.7568ZM97.959 72.4326H95.959C95.959 73.5372 96.8544 74.4326 97.959 74.4326V72.4326ZM111 72.4326H113C113 71.328 112.105 70.4326 111 70.4326V72.4326ZM111 83.7764V85.7764C112.105 85.7764 113 84.8809 113 83.7764H111ZM97.959 83.7764V81.7764C96.8544 81.7764 95.959 82.6718 95.959 83.7764H97.959ZM97.959 91.7588H95.959C95.959 92.8634 96.8544 93.7588 97.959 93.7588V91.7588ZM111 91.7588H113C113 90.6542 112.105 89.7588 111 89.7588V91.7588ZM111 103.102V105.102C112.105 105.102 113 104.206 113 103.102H111ZM97.959 103.102V101.102C96.8544 101.102 95.959 101.997 95.959 103.102H97.959ZM97.959 114.445V116.445C99.0636 116.445 99.959 115.55 99.959 114.445H97.959ZM85.3789 114.445H83.3789C83.3789 115.55 84.2743 116.445 85.3789 116.445V114.445ZM85.3789 103.102H87.3789C87.3789 101.997 86.4835 101.102 85.3789 101.102V103.102ZM72.3379 103.102H70.3379C70.3379 104.206 71.2333 105.102 72.3379 105.102V103.102ZM72.3379 91.7588V89.7588C71.2333 89.7588 70.3379 90.6542 70.3379 91.7588H72.3379ZM85.3789 91.7588V93.7588C86.4835 93.7588 87.3789 92.8634 87.3789 91.7588H85.3789ZM85.3789 83.7764H87.3789C87.3789 82.6718 86.4835 81.7764 85.3789 81.7764V83.7764ZM81.0947 83.7764V81.7764C80.2312 81.7764 79.4652 82.3306 79.1951 83.1507L81.0947 83.7764ZM78.5537 89.0273L77.8992 90.9172C78.7693 91.2186 79.7328 90.8868 80.233 90.1136L78.5537 89.0273ZM68.8516 85.667L69.5061 83.7771C68.8947 83.5654 68.2187 83.6625 67.6916 84.0377C67.1646 84.413 66.8516 85.02 66.8516 85.667H68.8516ZM68.8516 97.1152H70.8516H68.8516ZM52.2188 114.445H50.2188C50.2188 114.976 50.4295 115.484 50.8045 115.86C51.1796 116.235 51.6883 116.445 52.2188 116.445L52.2188 114.445ZM52.2188 104.152L52.2187 102.152C51.1142 102.152 50.2188 103.048 50.2188 104.152H52.2188ZM58.6865 97.1152L60.6865 97.1152V97.1152H58.6865ZM58.6865 93.8594H60.6865C60.6865 92.7548 59.7911 91.8594 58.6865 91.8594V93.8594ZM45.6455 93.8594H43.6455C43.6455 94.9639 44.5409 95.8594 45.6455 95.8594V93.8594ZM45.6455 92.8086H47.6455C47.6455 91.7299 46.7901 90.8456 45.712 90.8097C44.634 90.7738 43.7217 91.5993 43.6499 92.6756L45.6455 92.8086ZM43.6709 114.445L43.2031 116.39C43.761 116.524 44.3497 116.412 44.8194 116.083C45.2892 115.753 45.5948 115.238 45.6585 114.667L43.6709 114.445ZM33.6328 112.03L31.6482 111.782C31.522 112.793 32.175 113.737 33.165 113.975L33.6328 112.03ZM36.8672 52.8965H38.8672C38.8672 52.2033 38.5082 51.5595 37.9186 51.1951C37.3289 50.8307 36.5925 50.7977 35.9726 51.1077L36.8672 52.8965ZM33.6328 54.4717H31.6328C31.6328 55.1517 31.9784 55.7852 32.5501 56.1533C33.1219 56.5214 33.8416 56.5738 34.4606 56.2923L33.6328 54.4717ZM33.6328 39.8721L32.846 38.0334C32.1101 38.3483 31.6328 39.0716 31.6328 39.8721H33.6328ZM38.8203 30.4199V28.4199C37.7158 28.4199 36.8203 29.3153 36.8203 30.4199L38.8203 30.4199ZM46.8633 59.6182V57.6182C45.7668 57.6182 44.8748 58.501 44.8634 59.5973L46.8633 59.6182ZM46.5273 76.4238L48.5249 76.5223C48.5254 76.5121 48.5258 76.5018 48.5262 76.4916L46.5273 76.4238ZM46.1699 83.6709L44.1723 83.5724C44.1454 84.1192 44.3438 84.6533 44.7213 85.0498C45.0988 85.4464 45.6224 85.6709 46.1699 85.6709V83.6709ZM58.6445 83.6709V85.6709C59.7491 85.6709 60.6445 84.7755 60.6445 83.6709H58.6445ZM58.6445 59.6182H60.6445C60.6445 58.5136 59.7491 57.6182 58.6445 57.6182V59.6182ZM110.956 30.4199H112.956C112.956 29.3154 112.061 28.4199 110.956 28.4199V30.4199ZM110.956 48.2754L112.956 48.2754V48.2754H110.956ZM92.0137 66.6553H90.0137C90.0137 67.1857 90.2244 67.6944 90.5995 68.0695C90.9745 68.4446 91.4832 68.6553 92.0137 68.6553L92.0137 66.6553ZM92.0137 55.3125L92.0136 53.3125C90.9091 53.3125 90.0137 54.2079 90.0137 55.3125H92.0137ZM98.4814 48.2754L100.481 48.2754V48.2754H98.4814ZM98.4814 41.7627H100.481C100.481 40.6581 99.586 39.7627 98.4814 39.7627V41.7627ZM91.6777 41.7627V39.7627C90.6529 39.7627 89.7939 40.5374 89.6884 41.5568L91.6777 41.7627ZM82.2061 66.6553L81.4709 68.5153C82.2842 68.8367 83.212 68.5925 83.7616 67.9123L82.2061 66.6553ZM70.7812 62.1396L69.2014 60.9133C68.8154 61.4105 68.686 62.0605 68.8522 62.6676C69.0184 63.2748 69.4607 63.7683 70.0461 63.9996L70.7812 62.1396ZM79.2031 41.7627L81.1896 41.9949C81.2559 41.4279 81.0767 40.8596 80.6972 40.4331C80.3177 40.0066 79.774 39.7627 79.2031 39.7627V41.7627ZM72.2725 41.7627H70.2725C70.2725 42.8673 71.1679 43.7627 72.2725 43.7627V41.7627ZM72.2725 30.4199V28.4199C71.1679 28.4199 70.2725 29.3154 70.2725 30.4199H72.2725ZM48.585 41.7627V39.7627C47.8273 39.7627 47.1348 40.1908 46.796 40.8685L48.585 41.7627ZM43.6289 48.2754L42.2798 46.7989C41.6705 47.3556 41.4658 48.2295 41.7644 48.9989C42.063 49.7684 42.8036 50.2754 43.6289 50.2754V48.2754ZM50.4336 48.2754V50.2754C51.1606 50.2754 51.8303 49.8809 52.1828 49.2451L50.4336 48.2754ZM53.4365 41.7627L55.2935 42.5053C55.5399 41.8891 55.4647 41.1909 55.0926 40.6414C54.7205 40.0919 54.1001 39.7627 53.4365 39.7627V41.7627ZM67.5703 30.4199L65.576 30.269C65.0038 37.8317 63.6676 42.6545 61.5769 47.4804L63.4121 48.2754L65.2473 49.0704C67.5248 43.8134 68.9607 38.5525 69.5646 30.5708L67.5703 30.4199ZM63.4121 48.2754V50.2754H68.8301V48.2754V46.2754H63.4121V48.2754ZM68.8301 48.2754H66.8301V82.0957H68.8301H70.8301V48.2754H68.8301ZM68.8301 82.0957L70.5493 83.1177C73.0661 78.8837 74.1699 74.8452 74.1699 68.7569L72.1699 68.7568L70.1699 68.7568C70.1699 74.2215 69.2141 77.5355 67.1109 81.0738L68.8301 82.0957ZM72.1699 68.7568V70.7568H82.9014V68.7568V66.7568H72.1699V68.7568ZM82.9014 68.7568H80.9014V72.4326H82.9014H84.9014V68.7568H82.9014ZM82.9014 72.4326V74.4326H85.3369V72.4326V70.4326H82.9014V72.4326ZM85.3369 72.4326H87.3369V68.7568H85.3369H83.3369V72.4326H85.3369ZM85.3369 68.7568V70.7568H97.959V68.7568V66.7568H85.3369V68.7568ZM97.959 68.7568H95.959V72.4326H97.959H99.959V68.7568H97.959ZM97.959 72.4326V74.4326H111V72.4326V70.4326H97.959V72.4326ZM111 72.4326H109V83.7764H111H113V72.4326H111ZM111 83.7764V81.7764H97.959V83.7764V85.7764H111V83.7764ZM97.959 83.7764H95.959V91.7588H97.959H99.959V83.7764H97.959ZM97.959 91.7588V93.7588H111V91.7588V89.7588H97.959V91.7588ZM111 91.7588H109V103.102H111H113V91.7588H111ZM111 103.102V101.102H97.959V103.102V105.102H111V103.102ZM97.959 103.102H95.959V114.445H97.959H99.959V103.102H97.959ZM97.959 114.445V112.445H85.3789V114.445V116.445H97.959V114.445ZM85.3789 114.445H87.3789V103.102H85.3789H83.3789V114.445H85.3789ZM85.3789 103.102V101.102H72.3379V103.102V105.102H85.3789V103.102ZM72.3379 103.102H74.3379V91.7588H72.3379H70.3379V103.102H72.3379ZM72.3379 91.7588V93.7588H85.3789V91.7588V89.7588H72.3379V91.7588ZM85.3789 91.7588H87.3789V83.7764H85.3789H83.3789V91.7588H85.3789ZM85.3789 83.7764V81.7764H81.0947V83.7764V85.7764H85.3789V83.7764ZM81.0947 83.7764L79.1951 83.1507C78.6629 84.7667 77.9406 86.2929 76.8744 87.9411L78.5537 89.0273L80.233 90.1136C81.4766 88.1911 82.3506 86.3567 82.9944 84.402L81.0947 83.7764ZM78.5537 89.0273L79.2083 87.1375L69.5061 83.7771L68.8516 85.667L68.197 87.5569L77.8992 90.9172L78.5537 89.0273ZM68.8516 85.667H66.8516V97.1152H68.8516H70.8516V85.667H68.8516ZM68.8516 97.1152H66.8516C66.8516 103.554 65.8499 107.182 63.8499 109.287C61.8784 111.361 58.4595 112.445 52.2187 112.445L52.2188 114.445L52.2188 116.445C58.6834 116.445 63.581 115.376 66.7495 112.042C69.8895 108.738 70.8516 103.701 70.8516 97.1152H68.8516ZM52.2188 114.445H54.2188V104.152H52.2188H50.2188V114.445H52.2188ZM52.2188 104.152L52.2188 106.152C54.5289 106.152 56.8187 105.743 58.4702 104.099C60.1167 102.46 60.6865 100.036 60.6865 97.1152L58.6865 97.1152L56.6865 97.1152C56.6865 99.6565 56.1645 100.75 55.6481 101.264C55.1368 101.774 54.1927 102.152 52.2187 102.152L52.2188 104.152ZM58.6865 97.1152H60.6865V93.8594H58.6865H56.6865V97.1152H58.6865ZM58.6865 93.8594V91.8594H45.6455V93.8594V95.8594H58.6865V93.8594ZM45.6455 93.8594H47.6455V92.8086H45.6455H43.6455V93.8594H45.6455ZM45.6455 92.8086L43.6499 92.6756C43.1694 99.8851 42.479 107.102 41.6833 114.223L43.6709 114.445L45.6585 114.667C46.4588 107.505 47.1556 100.226 47.6411 92.9416L45.6455 92.8086ZM43.6709 114.445L44.1387 112.501L34.1006 110.086L33.6328 112.03L33.165 113.975L43.2031 116.39L43.6709 114.445ZM33.6328 112.03L35.6174 112.278C37.939 93.7002 38.8672 81.4324 38.8672 52.8965H36.8672H34.8672C34.8672 81.2882 33.9468 93.3889 31.6482 111.782L33.6328 112.03ZM36.8672 52.8965L35.9726 51.1077C34.905 51.6416 33.9175 52.1452 32.805 52.651L33.6328 54.4717L34.4606 56.2923C35.6581 55.7478 36.7293 55.2016 37.7618 54.6852L36.8672 52.8965ZM33.6328 54.4717H35.6328V39.8721H33.6328H31.6328V54.4717H33.6328ZM33.6328 39.8721L34.4197 41.7108C36.8111 40.6874 38.4672 39.07 39.4886 37.0238C40.4838 35.03 40.8203 32.7448 40.8203 30.42L38.8203 30.4199L36.8203 30.4199C36.8203 32.4011 36.5264 34.0017 35.9097 35.2374C35.319 36.4207 34.3815 37.3763 32.846 38.0334L33.6328 39.8721ZM38.8203 30.4199V32.4199H67.5703V30.4199V28.4199H38.8203V30.4199ZM46.8633 59.6182L44.8634 59.5973C44.8005 65.6394 44.6958 71.4204 44.5285 76.3561L46.5273 76.4238L48.5262 76.4916C48.6949 71.5121 48.8001 65.6967 48.8632 59.639L46.8633 59.6182ZM46.5273 76.4238L44.5298 76.3253L44.1723 83.5724L46.1699 83.6709L48.1675 83.7694L48.5249 76.5223L46.5273 76.4238ZM46.1699 83.6709V85.6709H58.6445V83.6709V81.6709H46.1699V83.6709ZM58.6445 83.6709H60.6445V59.6182H58.6445H56.6445V83.6709H58.6445ZM58.6445 59.6182V57.6182H46.8633V59.6182V61.6182H58.6445V59.6182ZM110.956 30.4199H108.956V48.2754H110.956H112.956V30.4199H110.956ZM110.956 48.2754L108.956 48.2754C108.956 54.5595 107.462 58.5072 104.881 60.9302C102.272 63.3786 98.1477 64.6552 92.0137 64.6553L92.0137 66.6553L92.0137 68.6553C98.5849 68.6552 103.932 67.3063 107.618 63.8469C111.331 60.3622 112.956 55.12 112.956 48.2754L110.956 48.2754ZM92.0137 66.6553H94.0137V55.3125H92.0137H90.0137V66.6553H92.0137ZM92.0137 55.3125L92.0137 57.3125C94.3238 57.3125 96.6136 56.9034 98.265 55.2593C99.9115 53.6202 100.481 51.1956 100.481 48.2754L98.4814 48.2754L96.4814 48.2754C96.4814 50.8165 95.9594 51.9104 95.4429 52.4245C94.9315 52.9336 93.9874 53.3125 92.0136 53.3125L92.0137 55.3125ZM98.4814 48.2754H100.481V41.7627H98.4814H96.4814V48.2754H98.4814ZM98.4814 41.7627V39.7627H91.6777V41.7627V43.7627H98.4814V41.7627ZM91.6777 41.7627L89.6884 41.5568C88.7894 50.2427 86.4413 58.2322 80.6505 65.3982L82.2061 66.6553L83.7616 67.9123C90.193 59.9538 92.7181 51.138 93.6671 41.9686L91.6777 41.7627ZM82.2061 66.6553L82.9412 64.7953L71.5164 60.2797L70.7812 62.1396L70.0461 63.9996L81.4709 68.5153L82.2061 66.6553ZM70.7812 62.1396L72.3611 63.366C78.1531 55.9047 80.354 49.1432 81.1896 41.9949L79.2031 41.7627L77.2167 41.5305C76.4562 48.0365 74.4979 54.0902 69.2014 60.9133L70.7812 62.1396ZM79.2031 41.7627V39.7627H72.2725V41.7627V43.7627H79.2031V41.7627ZM72.2725 41.7627H74.2725V30.4199H72.2725H70.2725V41.7627H72.2725ZM72.2725 30.4199V32.4199H110.956V30.4199V28.4199H72.2725V30.4199ZM48.585 41.7627L46.796 40.8685C45.7494 42.9623 44.2808 44.9706 42.2798 46.7989L43.6289 48.2754L44.978 49.7519C47.3452 47.5889 49.1104 45.1846 50.3739 42.6569L48.585 41.7627ZM43.6289 48.2754V50.2754H50.4336V48.2754V46.2754H43.6289V48.2754ZM50.4336 48.2754L52.1828 49.2451C53.5264 46.8215 54.4876 44.5208 55.2935 42.5053L53.4365 41.7627L51.5795 41.0201C50.7894 42.9958 49.9029 45.1079 48.6844 47.3057L50.4336 48.2754ZM53.4365 41.7627V39.7627H48.585V41.7627V43.7627H53.4365V41.7627Z" fill="white" mask="url(#path-2-outside-1_11798_454)"/>
</g>
<path d="M61.491 70.9285C61.8813 71.3191 61.8814 71.9524 61.491 72.3429L53.457 80.3791C53.0666 80.7694 52.4334 80.7694 52.043 80.3791L44.009 72.3429C43.6186 71.9524 43.6187 71.3191 44.009 70.9285L52.043 62.8924C52.4335 62.5018 53.0665 62.5018 53.457 62.8924L61.491 70.9285Z" fill="#F3B5B0" stroke="white" stroke-width="2" stroke-linejoin="round"/>
<defs>
<filter id="filter0_d_11798_454" x="31.6328" y="28.4199" width="81.3672" height="90.0254" filterUnits="userSpaceOnUse" color-interpolation-filters="sRGB">
<feFlood flood-opacity="0" result="BackgroundImageFix"/>
<feColorMatrix in="SourceAlpha" type="matrix" values="0 0 0 0 0 0 0 0 0 0 0 0 0 0 0 0 0 0 127 0" result="hardAlpha"/>
<feOffset dy="2"/>
<feComposite in2="hardAlpha" operator="out"/>
<feColorMatrix type="matrix" values="0 0 0 0 0.65098 0 0 0 0 0.643137 0 0 0 0 0.635294 0 0 0 0.3 0"/>
<feBlend mode="normal" in2="BackgroundImageFix" result="effect1_dropShadow_11798_454"/>
<feBlend mode="normal" in="SourceGraphic" in2="effect1_dropShadow_11798_454" result="shape"/>
</filter>
</defs>
</svg>
